<?xml version="1.0" encoding="UTF-8" standalone="no"?>
<!DOCTYPE svg PUBLIC "-//W3C//DTD SVG 1.1//EN"
 "http://www.w3.org/Graphics/SVG/1.1/DTD/svg11.dtd">
<!-- Generated by graphviz version 2.43.0 (0)
 -->
<!-- Title: %3 Pages: 1 -->
<svg width="801pt" height="263pt"
 viewBox="0.00 0.00 801.15 262.59" xmlns="http://www.w3.org/2000/svg" xmlns:xlink="http://www.w3.org/1999/xlink">
<g id="graph0" class="graph" transform="scale(1 1) rotate(0) translate(4 258.59)">
<title>%3</title>
<polygon fill="white" stroke="transparent" points="-4,4 -4,-258.59 797.15,-258.59 797.15,4 -4,4"/>
<text text-anchor="middle" x="396.58" y="-7.8" font-family="Times,serif" font-size="14.00">Regular Expression: [aA]bdo+</text>
<!-- S6 S3 S1 -->
<g id="node1" class="node">
<title>S6 S3 S1</title>
<ellipse fill="none" stroke="black" cx="246.49" cy="-201.3" rx="53.09" ry="53.09"/>
<text text-anchor="middle" x="246.49" y="-197.6" font-family="Times,serif" font-size="14.00">S6 S3 S1</text>
</g>
<!-- S8 S7 -->
<g id="node2" class="node">
<title>S8 S7</title>
<ellipse fill="none" stroke="black" cx="384.13" cy="-138.3" rx="38.19" ry="38.19"/>
<text text-anchor="middle" x="384.13" y="-134.6" font-family="Times,serif" font-size="14.00">S8 S7</text>
</g>
<!-- S6 S3 S1&#45;&gt;S8 S7 -->
<g id="edge8" class="edge">
<title>S6 S3 S1&#45;&gt;S8 S7</title>
<path fill="none" stroke="green" d="M295.31,-179.08C309.69,-172.41 325.38,-165.12 339.47,-158.57"/>
<polygon fill="green" stroke="green" points="341.34,-161.56 348.94,-154.18 338.39,-155.21 341.34,-161.56"/>
<text text-anchor="middle" x="322.78" y="-172.1" font-family="Times,serif" font-size="14.00">b</text>
</g>
<!-- S12 S10 S9 -->
<g id="node5" class="node">
<title>S12 S10 S9</title>
<ellipse fill="none" stroke="black" cx="533.47" cy="-138.3" rx="64.99" ry="64.99"/>
<text text-anchor="middle" x="533.47" y="-134.6" font-family="Times,serif" font-size="14.00">S12 S10 S9</text>
</g>
<!-- S8 S7&#45;&gt;S12 S10 S9 -->
<g id="edge5" class="edge">
<title>S8 S7&#45;&gt;S12 S10 S9</title>
<path fill="none" stroke="green" d="M422.69,-138.3C433.55,-138.3 445.79,-138.3 458.07,-138.3"/>
<polygon fill="green" stroke="green" points="458.36,-141.8 468.36,-138.3 458.36,-134.8 458.36,-141.8"/>
<text text-anchor="middle" x="445.47" y="-142.1" font-family="Times,serif" font-size="14.00">d</text>
</g>
<!-- S4 S0 S2 -->
<g id="node3" class="node">
<title>S4 S0 S2</title>
<ellipse fill="lightblue" stroke="black" cx="93.9" cy="-138.3" rx="53.09" ry="53.09"/>
<text text-anchor="middle" x="93.9" y="-134.6" font-family="Times,serif" font-size="14.00">S4 S0 S2</text>
</g>
<!-- S4 S0 S2&#45;&gt;S6 S3 S1 -->
<g id="edge2" class="edge">
<title>S4 S0 S2&#45;&gt;S6 S3 S1</title>
<path fill="none" stroke="green" d="M143.37,-158.58C157.48,-164.48 173.03,-170.98 187.65,-177.1"/>
<polygon fill="green" stroke="green" points="186.52,-180.42 197.1,-181.05 189.23,-173.96 186.52,-180.42"/>
<text text-anchor="middle" x="170.19" y="-176.1" font-family="Times,serif" font-size="14.00">a</text>
</g>
<!-- S6 S1 S5 -->
<g id="node6" class="node">
<title>S6 S1 S5</title>
<ellipse fill="none" stroke="black" cx="246.49" cy="-76.3" rx="53.09" ry="53.09"/>
<text text-anchor="middle" x="246.49" y="-72.6" font-family="Times,serif" font-size="14.00">S6 S1 S5</text>
</g>
<!-- S4 S0 S2&#45;&gt;S6 S1 S5 -->
<g id="edge3" class="edge">
<title>S4 S0 S2&#45;&gt;S6 S1 S5</title>
<path fill="none" stroke="green" d="M143.37,-118.34C157.41,-112.56 172.87,-106.19 187.43,-100.2"/>
<polygon fill="green" stroke="green" points="188.93,-103.37 196.84,-96.32 186.26,-96.89 188.93,-103.37"/>
<text text-anchor="middle" x="170.19" y="-113.1" font-family="Times,serif" font-size="14.00">A</text>
</g>
<!-- S13 S11 S10 -->
<g id="node4" class="node">
<title>S13 S11 S10</title>
<ellipse fill="lightgray" stroke="black" cx="718.31" cy="-138.3" rx="70.7" ry="70.7"/>
<ellipse fill="none" stroke="black" cx="718.31" cy="-138.3" rx="74.69" ry="74.69"/>
<text text-anchor="middle" x="718.31" y="-134.6" font-family="Times,serif" font-size="14.00">S13 S11 S10</text>
</g>
<!-- S13 S11 S10&#45;&gt;S13 S11 S10 -->
<g id="edge7" class="edge">
<title>S13 S11 S10&#45;&gt;S13 S11 S10</title>
<path fill="none" stroke="green" d="M701.73,-211.47C704.16,-223.15 709.68,-231.14 718.31,-231.14 724.24,-231.14 728.7,-227.36 731.7,-221.2"/>
<polygon fill="green" stroke="green" points="735.1,-222.06 734.88,-211.47 728.45,-219.88 735.1,-222.06"/>
<text text-anchor="middle" x="718.31" y="-234.94" font-family="Times,serif" font-size="14.00">o</text>
</g>
<!-- S12 S10 S9&#45;&gt;S13 S11 S10 -->
<g id="edge6" class="edge">
<title>S12 S10 S9&#45;&gt;S13 S11 S10</title>
<path fill="none" stroke="green" d="M598.67,-138.3C609.81,-138.3 621.55,-138.3 633.13,-138.3"/>
<polygon fill="green" stroke="green" points="633.25,-141.8 643.25,-138.3 633.25,-134.8 633.25,-141.8"/>
<text text-anchor="middle" x="620.96" y="-142.1" font-family="Times,serif" font-size="14.00">o</text>
</g>
<!-- S6 S1 S5&#45;&gt;S8 S7 -->
<g id="edge4" class="edge">
<title>S6 S1 S5&#45;&gt;S8 S7</title>
<path fill="none" stroke="green" d="M295.31,-98.15C309.69,-104.73 325.38,-111.9 339.47,-118.34"/>
<polygon fill="green" stroke="green" points="338.39,-121.69 348.94,-122.67 341.3,-115.33 338.39,-121.69"/>
<text text-anchor="middle" x="322.78" y="-117.1" font-family="Times,serif" font-size="14.00">b</text>
</g>
<!-- start -->
<g id="node7" class="node">
<title>start</title>
<ellipse fill="black" stroke="black" cx="1.8" cy="-138.3" rx="1.8" ry="1.8"/>
</g>
<!-- start&#45;&gt;S4 S0 S2 -->
<g id="edge1" class="edge">
<title>start&#45;&gt;S4 S0 S2</title>
<path fill="none" stroke="black" d="M3.81,-138.3C7.02,-138.3 17.48,-138.3 30.17,-138.3"/>
<polygon fill="black" stroke="black" points="30.23,-141.8 40.23,-138.3 30.23,-134.8 30.23,-141.8"/>
</g>
</g>
</svg>
