<?xml version="1.0" encoding="UTF-8" standalone="no"?>
<!DOCTYPE svg PUBLIC "-//W3C//DTD SVG 1.1//EN"
 "http://www.w3.org/Graphics/SVG/1.1/DTD/svg11.dtd">
<!-- Generated by graphviz version 12.2.1 (20241206.2353)
 -->
<!-- Pages: 1 -->
<svg width="1113pt" height="407pt"
 viewBox="0.00 0.00 1112.69 407.18" xmlns="http://www.w3.org/2000/svg" xmlns:xlink="http://www.w3.org/1999/xlink">
<g id="graph0" class="graph" transform="scale(1 1) rotate(0) translate(4 403.18)">
<polygon fill="white" stroke="none" points="-4,4 -4,-403.18 1108.69,-403.18 1108.69,4 -4,4"/>
<text text-anchor="middle" x="552.34" y="-7.2" font-family="Times New Roman,serif" font-size="14.00">Regular Expression: [bc]*(cd)+</text>
<!-- S4 S7 S2 S0 S12 S6 S8 -->
<g id="node1" class="node">
<title>S4 S7 S2 S0 S12 S6 S8</title>
<ellipse fill="lightblue" stroke="black" cx="139.55" cy="-123.45" rx="98.95" ry="98.95"/>
<text text-anchor="middle" x="139.55" y="-118.4" font-family="Times New Roman,serif" font-size="14.00">S4 S7 S2 S0 S12 S6 S8</text>
</g>
<!-- S1 S4 S7 S2 S0 S12 S8 S3 -->
<g id="node2" class="node">
<title>S1 S4 S7 S2 S0 S12 S8 S3</title>
<ellipse fill="none" stroke="black" cx="392.48" cy="-253.45" rx="111.23" ry="111.23"/>
<text text-anchor="middle" x="392.48" y="-248.4" font-family="Times New Roman,serif" font-size="14.00">S1 S4 S7 S2 S0 S12 S8 S3</text>
</g>
<!-- S4 S7 S2 S0 S12 S6 S8&#45;&gt;S1 S4 S7 S2 S0 S12 S8 S3 -->
<g id="edge2" class="edge">
<title>S4 S7 S2 S0 S12 S6 S8&#45;&gt;S1 S4 S7 S2 S0 S12 S8 S3</title>
<path fill="none" stroke="green" d="M227.96,-168.73C245.74,-177.95 264.65,-187.74 283.06,-197.28"/>
<polygon fill="green" stroke="green" points="281.39,-200.36 291.88,-201.85 284.61,-194.14 281.39,-200.36"/>
<text text-anchor="middle" x="259.87" y="-187.75" font-family="Times New Roman,serif" font-size="14.00">b</text>
</g>
<!-- S5 S1 S4 S7 S2 S9 S0 S12 S8 S10 -->
<g id="node5" class="node">
<title>S5 S1 S4 S7 S2 S9 S0 S12 S8 S10</title>
<ellipse fill="none" stroke="black" cx="686.87" cy="-213.45" rx="140.41" ry="140.41"/>
<text text-anchor="middle" x="686.87" y="-208.4" font-family="Times New Roman,serif" font-size="14.00">S5 S1 S4 S7 S2 S9 S0 S12 S8 S10</text>
</g>
<!-- S4 S7 S2 S0 S12 S6 S8&#45;&gt;S5 S1 S4 S7 S2 S9 S0 S12 S8 S10 -->
<g id="edge3" class="edge">
<title>S4 S7 S2 S0 S12 S6 S8&#45;&gt;S5 S1 S4 S7 S2 S9 S0 S12 S8 S10</title>
<path fill="none" stroke="green" d="M237.66,-108.23C311.7,-99.84 415.59,-95.05 503.72,-116.95 521.43,-121.35 539.31,-127.83 556.59,-135.38"/>
<polygon fill="green" stroke="green" points="554.76,-138.39 565.31,-139.32 557.64,-132.01 554.76,-138.39"/>
<text text-anchor="middle" x="392.48" y="-120.15" font-family="Times New Roman,serif" font-size="14.00">c</text>
</g>
<!-- S1 S4 S7 S2 S0 S12 S8 S3&#45;&gt;S1 S4 S7 S2 S0 S12 S8 S3 -->
<g id="edge9" class="edge">
<title>S1 S4 S7 S2 S0 S12 S8 S3&#45;&gt;S1 S4 S7 S2 S0 S12 S8 S3</title>
<path fill="none" stroke="green" d="M371.57,-362.82C375.54,-374.89 382.51,-382.68 392.48,-382.68 399.18,-382.68 404.53,-379.16 408.52,-373.19"/>
<polygon fill="green" stroke="green" points="411.67,-374.72 412.75,-364.19 405.33,-371.75 411.67,-374.72"/>
<text text-anchor="middle" x="392.48" y="-385.88" font-family="Times New Roman,serif" font-size="14.00">b</text>
</g>
<!-- S1 S4 S7 S2 S0 S12 S8 S3&#45;&gt;S5 S1 S4 S7 S2 S9 S0 S12 S8 S10 -->
<g id="edge10" class="edge">
<title>S1 S4 S7 S2 S0 S12 S8 S3&#45;&gt;S5 S1 S4 S7 S2 S9 S0 S12 S8 S10</title>
<path fill="none" stroke="green" d="M503.19,-238.44C514.01,-236.96 525.11,-235.44 536.23,-233.92"/>
<polygon fill="green" stroke="green" points="536.43,-237.43 545.86,-232.6 535.48,-230.49 536.43,-237.43"/>
<text text-anchor="middle" x="525.09" y="-239.04" font-family="Times New Roman,serif" font-size="14.00">c</text>
</g>
<!-- S11 S8 S13 -->
<g id="node3" class="node">
<title>S11 S8 S13</title>
<ellipse fill="lightgray" stroke="black" cx="928.45" cy="-213.45" rx="54.42" ry="54.42"/>
<ellipse fill="none" stroke="black" cx="928.45" cy="-213.45" rx="58.42" ry="58.42"/>
<text text-anchor="middle" x="928.45" y="-208.4" font-family="Times New Roman,serif" font-size="14.00">S11 S8 S13</text>
</g>
<!-- S9 S10 -->
<g id="node4" class="node">
<title>S9 S10</title>
<ellipse fill="none" stroke="black" cx="1067.15" cy="-213.45" rx="37.53" ry="37.53"/>
<text text-anchor="middle" x="1067.15" y="-208.4" font-family="Times New Roman,serif" font-size="14.00">S9 S10</text>
</g>
<!-- S11 S8 S13&#45;&gt;S9 S10 -->
<g id="edge7" class="edge">
<title>S11 S8 S13&#45;&gt;S9 S10</title>
<path fill="none" stroke="green" d="M987.03,-213.45C997.31,-213.45 1007.92,-213.45 1017.91,-213.45"/>
<polygon fill="green" stroke="green" points="1017.77,-216.95 1027.77,-213.45 1017.77,-209.95 1017.77,-216.95"/>
<text text-anchor="middle" x="1008.25" y="-216.65" font-family="Times New Roman,serif" font-size="14.00">c</text>
</g>
<!-- S9 S10&#45;&gt;S11 S8 S13 -->
<g id="edge8" class="edge">
<title>S9 S10&#45;&gt;S11 S8 S13</title>
<path fill="none" stroke="green" d="M1032.36,-198.61C1025.61,-196.26 1018.49,-194.2 1011.62,-192.95 1006.21,-191.97 1000.63,-191.71 995.03,-191.98"/>
<polygon fill="green" stroke="green" points="994.66,-188.5 985.11,-193.07 995.43,-195.46 994.66,-188.5"/>
<text text-anchor="middle" x="1008.25" y="-196.15" font-family="Times New Roman,serif" font-size="14.00">d</text>
</g>
<!-- S5 S1 S4 S7 S2 S9 S0 S12 S8 S10&#45;&gt;S1 S4 S7 S2 S0 S12 S8 S3 -->
<g id="edge4" class="edge">
<title>S5 S1 S4 S7 S2 S9 S0 S12 S8 S10&#45;&gt;S1 S4 S7 S2 S0 S12 S8 S3</title>
<path fill="none" stroke="green" d="M546.39,-212.01C538.02,-212.77 529.75,-213.73 521.72,-214.95 517.8,-215.54 513.85,-216.23 509.87,-216.99"/>
<polygon fill="green" stroke="green" points="509.17,-213.56 500.09,-219.01 510.59,-220.41 509.17,-213.56"/>
<text text-anchor="middle" x="525.09" y="-218.15" font-family="Times New Roman,serif" font-size="14.00">b</text>
</g>
<!-- S5 S1 S4 S7 S2 S9 S0 S12 S8 S10&#45;&gt;S11 S8 S13 -->
<g id="edge6" class="edge">
<title>S5 S1 S4 S7 S2 S9 S0 S12 S8 S10&#45;&gt;S11 S8 S13</title>
<path fill="none" stroke="green" d="M827.58,-213.45C838.21,-213.45 848.62,-213.45 858.47,-213.45"/>
<polygon fill="green" stroke="green" points="858.24,-216.95 868.24,-213.45 858.24,-209.95 858.24,-216.95"/>
<text text-anchor="middle" x="848.65" y="-216.65" font-family="Times New Roman,serif" font-size="14.00">d</text>
</g>
<!-- S5 S1 S4 S7 S2 S9 S0 S12 S8 S10&#45;&gt;S5 S1 S4 S7 S2 S9 S0 S12 S8 S10 -->
<g id="edge5" class="edge">
<title>S5 S1 S4 S7 S2 S9 S0 S12 S8 S10&#45;&gt;S5 S1 S4 S7 S2 S9 S0 S12 S8 S10</title>
<path fill="none" stroke="green" d="M663.09,-352.21C668.12,-364.29 676.05,-371.86 686.87,-371.86 694.31,-371.86 700.38,-368.28 705.09,-362.12"/>
<polygon fill="green" stroke="green" points="708.07,-363.96 709.91,-353.53 701.96,-360.53 708.07,-363.96"/>
<text text-anchor="middle" x="686.87" y="-375.06" font-family="Times New Roman,serif" font-size="14.00">c</text>
</g>
<!-- start -->
<g id="node6" class="node">
<title>start</title>
<ellipse fill="black" stroke="black" cx="1.8" cy="-123.45" rx="1.8" ry="1.8"/>
</g>
<!-- start&#45;&gt;S4 S7 S2 S0 S12 S6 S8 -->
<g id="edge1" class="edge">
<title>start&#45;&gt;S4 S7 S2 S0 S12 S6 S8</title>
<path fill="none" stroke="black" d="M3.67,-123.45C6.51,-123.45 16.09,-123.45 28.94,-123.45"/>
<polygon fill="black" stroke="black" points="28.9,-126.95 38.9,-123.45 28.9,-119.95 28.9,-126.95"/>
</g>
</g>
</svg>
