<?xml version="1.0" encoding="UTF-8" standalone="no"?>
<!DOCTYPE svg PUBLIC "-//W3C//DTD SVG 1.1//EN"
 "http://www.w3.org/Graphics/SVG/1.1/DTD/svg11.dtd">
<!-- Generated by graphviz version 12.2.1 (20241206.2353)
 -->
<!-- Pages: 1 -->
<svg width="312pt" height="190pt"
 viewBox="0.00 0.00 312.01 189.99" xmlns="http://www.w3.org/2000/svg" xmlns:xlink="http://www.w3.org/1999/xlink">
<g id="graph0" class="graph" transform="scale(1 1) rotate(0) translate(4 185.99)">
<polygon fill="white" stroke="none" points="-4,4 -4,-185.99 308.01,-185.99 308.01,4 -4,4"/>
<text text-anchor="middle" x="152" y="-7.2" font-family="Times New Roman,serif" font-size="14.00">Regular Expression: a*</text>
<!-- S0 S1 S2 S3 -->
<g id="node1" class="node">
<title>S0 S1 S2 S3</title>
<ellipse fill="lightgray" stroke="black" cx="242.51" cy="-85.99" rx="57.49" ry="57.49"/>
<ellipse fill="none" stroke="black" cx="242.51" cy="-85.99" rx="61.49" ry="61.49"/>
<text text-anchor="middle" x="242.51" y="-80.94" font-family="Times New Roman,serif" font-size="14.00">S0 S1 S2 S3</text>
</g>
<!-- S0 S1 S2 S3&#45;&gt;S0 S1 S2 S3 -->
<g id="edge3" class="edge">
<title>S0 S1 S2 S3&#45;&gt;S0 S1 S2 S3</title>
<path fill="none" stroke="green" d="M227.79,-145.97C229.55,-157.4 234.46,-165.49 242.51,-165.49 247.67,-165.49 251.54,-162.17 254.12,-156.78"/>
<polygon fill="green" stroke="green" points="257.41,-158 256.82,-147.42 250.69,-156.06 257.41,-158"/>
<text text-anchor="middle" x="242.51" y="-168.69" font-family="Times New Roman,serif" font-size="14.00">a</text>
</g>
<!-- S3 S2 S0 -->
<g id="node2" class="node">
<title>S3 S2 S0</title>
<ellipse fill="lightgray" stroke="black" cx="89.81" cy="-85.99" rx="45.21" ry="45.21"/>
<ellipse fill="none" stroke="black" cx="89.81" cy="-85.99" rx="49.21" ry="49.21"/>
<text text-anchor="middle" x="89.81" y="-80.94" font-family="Times New Roman,serif" font-size="14.00">S3 S2 S0</text>
</g>
<!-- S3 S2 S0&#45;&gt;S0 S1 S2 S3 -->
<g id="edge2" class="edge">
<title>S3 S2 S0&#45;&gt;S0 S1 S2 S3</title>
<path fill="none" stroke="green" d="M139.32,-85.99C148.89,-85.99 159.12,-85.99 169.27,-85.99"/>
<polygon fill="green" stroke="green" points="169.15,-89.49 179.15,-85.99 169.15,-82.49 169.15,-89.49"/>
<text text-anchor="middle" x="160.02" y="-89.19" font-family="Times New Roman,serif" font-size="14.00">a</text>
</g>
<!-- start -->
<g id="node3" class="node">
<title>start</title>
<ellipse fill="black" stroke="black" cx="1.8" cy="-85.99" rx="1.8" ry="1.8"/>
</g>
<!-- start&#45;&gt;S3 S2 S0 -->
<g id="edge1" class="edge">
<title>start&#45;&gt;S3 S2 S0</title>
<path fill="none" stroke="black" d="M4.02,-85.99C7.36,-85.99 17.25,-85.99 29.15,-85.99"/>
<polygon fill="black" stroke="black" points="29,-89.49 39,-85.99 29,-82.49 29,-89.49"/>
</g>
</g>
</svg>
