<?xml version="1.0" encoding="UTF-8" standalone="no"?>
<!DOCTYPE svg PUBLIC "-//W3C//DTD SVG 1.1//EN"
 "http://www.w3.org/Graphics/SVG/1.1/DTD/svg11.dtd">
<!-- Generated by graphviz version 12.2.1 (20241206.2353)
 -->
<!-- Pages: 1 -->
<svg width="952pt" height="465pt"
 viewBox="0.00 0.00 952.34 465.36" xmlns="http://www.w3.org/2000/svg" xmlns:xlink="http://www.w3.org/1999/xlink">
<g id="graph0" class="graph" transform="scale(1 1) rotate(0) translate(4 461.36)">
<polygon fill="white" stroke="none" points="-4,4 -4,-461.36 948.34,-461.36 948.34,4 -4,4"/>
<text text-anchor="middle" x="472.17" y="-7.2" font-family="Times New Roman,serif" font-size="14.00">Regular Expression: [bc]*(cd)+</text>
<!-- S0 S5 S1 S12 S10 S8 S4 S2 S7 S9 -->
<g id="node1" class="node">
<title>S0 S5 S1 S12 S10 S8 S4 S2 S7 S9</title>
<ellipse fill="none" stroke="black" cx="420.91" cy="-282.45" rx="140.41" ry="140.41"/>
<text text-anchor="middle" x="420.91" y="-277.4" font-family="Times New Roman,serif" font-size="14.00">S0 S5 S1 S12 S10 S8 S4 S2 S7 S9</text>
</g>
<!-- S0 S5 S1 S12 S10 S8 S4 S2 S7 S9&#45;&gt;S0 S5 S1 S12 S10 S8 S4 S2 S7 S9 -->
<g id="edge5" class="edge">
<title>S0 S5 S1 S12 S10 S8 S4 S2 S7 S9&#45;&gt;S0 S5 S1 S12 S10 S8 S4 S2 S7 S9</title>
<path fill="none" stroke="green" d="M397.18,-421.21C402.2,-433.29 410.11,-440.86 420.91,-440.86 428.33,-440.86 434.39,-437.28 439.08,-431.12"/>
<polygon fill="green" stroke="green" points="442.06,-432.96 443.89,-422.53 435.95,-429.54 442.06,-432.96"/>
<text text-anchor="middle" x="420.91" y="-444.06" font-family="Times New Roman,serif" font-size="14.00">c</text>
</g>
<!-- S13 S11 S8 -->
<g id="node2" class="node">
<title>S13 S11 S8</title>
<ellipse fill="lightgray" stroke="black" cx="715.29" cy="-376.45" rx="54.42" ry="54.42"/>
<ellipse fill="none" stroke="black" cx="715.29" cy="-376.45" rx="58.42" ry="58.42"/>
<text text-anchor="middle" x="715.29" y="-371.4" font-family="Times New Roman,serif" font-size="14.00">S13 S11 S8</text>
</g>
<!-- S0 S5 S1 S12 S10 S8 S4 S2 S7 S9&#45;&gt;S13 S11 S8 -->
<g id="edge6" class="edge">
<title>S0 S5 S1 S12 S10 S8 S4 S2 S7 S9&#45;&gt;S13 S11 S8</title>
<path fill="none" stroke="green" d="M554.84,-325.19C587.33,-335.63 620.71,-346.36 648.48,-355.29"/>
<polygon fill="green" stroke="green" points="647.19,-358.55 657.78,-358.28 649.33,-351.89 647.19,-358.55"/>
<text text-anchor="middle" x="582.69" y="-338.28" font-family="Times New Roman,serif" font-size="14.00">d</text>
</g>
<!-- S0 S1 S12 S3 S8 S4 S2 S7 -->
<g id="node3" class="node">
<title>S0 S1 S12 S3 S8 S4 S2 S7</title>
<ellipse fill="none" stroke="black" cx="715.29" cy="-154.45" rx="111.23" ry="111.23"/>
<text text-anchor="middle" x="715.29" y="-149.4" font-family="Times New Roman,serif" font-size="14.00">S0 S1 S12 S3 S8 S4 S2 S7</text>
</g>
<!-- S0 S5 S1 S12 S10 S8 S4 S2 S7 S9&#45;&gt;S0 S1 S12 S3 S8 S4 S2 S7 -->
<g id="edge4" class="edge">
<title>S0 S5 S1 S12 S10 S8 S4 S2 S7 S9&#45;&gt;S0 S1 S12 S3 S8 S4 S2 S7</title>
<path fill="none" stroke="green" d="M551.12,-228.61C562.95,-223.54 574.74,-218.43 586.06,-213.45 591.88,-210.89 597.84,-208.24 603.84,-205.55"/>
<polygon fill="green" stroke="green" points="604.92,-208.9 612.61,-201.61 602.05,-202.52 604.92,-208.9"/>
<text text-anchor="middle" x="582.69" y="-218.57" font-family="Times New Roman,serif" font-size="14.00">b</text>
</g>
<!-- S9 S10 -->
<g id="node5" class="node">
<title>S9 S10</title>
<ellipse fill="none" stroke="black" cx="906.81" cy="-376.45" rx="37.53" ry="37.53"/>
<text text-anchor="middle" x="906.81" y="-371.4" font-family="Times New Roman,serif" font-size="14.00">S9 S10</text>
</g>
<!-- S13 S11 S8&#45;&gt;S9 S10 -->
<g id="edge7" class="edge">
<title>S13 S11 S8&#45;&gt;S9 S10</title>
<path fill="none" stroke="green" d="M774.18,-376.45C800.9,-376.45 832.24,-376.45 857.64,-376.45"/>
<polygon fill="green" stroke="green" points="857.34,-379.95 867.34,-376.45 857.34,-372.95 857.34,-379.95"/>
<text text-anchor="middle" x="847.9" y="-379.65" font-family="Times New Roman,serif" font-size="14.00">c</text>
</g>
<!-- S0 S1 S12 S3 S8 S4 S2 S7&#45;&gt;S0 S5 S1 S12 S10 S8 S4 S2 S7 S9 -->
<g id="edge10" class="edge">
<title>S0 S1 S12 S3 S8 S4 S2 S7&#45;&gt;S0 S5 S1 S12 S10 S8 S4 S2 S7 S9</title>
<path fill="none" stroke="green" d="M607.36,-182.37C597.77,-185.64 588.3,-189.18 579.31,-192.95 570.16,-196.79 560.87,-201.05 551.61,-205.56"/>
<polygon fill="green" stroke="green" points="550.34,-202.28 542.95,-209.87 553.46,-208.55 550.34,-202.28"/>
<text text-anchor="middle" x="582.69" y="-196.15" font-family="Times New Roman,serif" font-size="14.00">c</text>
</g>
<!-- S0 S1 S12 S3 S8 S4 S2 S7&#45;&gt;S0 S1 S12 S3 S8 S4 S2 S7 -->
<g id="edge9" class="edge">
<title>S0 S1 S12 S3 S8 S4 S2 S7&#45;&gt;S0 S1 S12 S3 S8 S4 S2 S7</title>
<path fill="none" stroke="green" d="M694.38,-263.82C698.35,-275.89 705.32,-283.68 715.29,-283.68 721.99,-283.68 727.34,-280.16 731.33,-274.19"/>
<polygon fill="green" stroke="green" points="734.48,-275.72 735.57,-265.19 728.14,-272.75 734.48,-275.72"/>
<text text-anchor="middle" x="715.29" y="-286.88" font-family="Times New Roman,serif" font-size="14.00">b</text>
</g>
<!-- S0 S6 S12 S8 S4 S2 S7 -->
<g id="node4" class="node">
<title>S0 S6 S12 S8 S4 S2 S7</title>
<ellipse fill="lightblue" stroke="black" cx="139.55" cy="-123.45" rx="98.95" ry="98.95"/>
<text text-anchor="middle" x="139.55" y="-118.4" font-family="Times New Roman,serif" font-size="14.00">S0 S6 S12 S8 S4 S2 S7</text>
</g>
<!-- S0 S6 S12 S8 S4 S2 S7&#45;&gt;S0 S5 S1 S12 S10 S8 S4 S2 S7 S9 -->
<g id="edge3" class="edge">
<title>S0 S6 S12 S8 S4 S2 S7&#45;&gt;S0 S5 S1 S12 S10 S8 S4 S2 S7 S9</title>
<path fill="none" stroke="green" d="M225.88,-172.02C245.71,-183.3 267.27,-195.58 288.57,-207.7"/>
<polygon fill="green" stroke="green" points="286.59,-210.6 297.02,-212.5 290.06,-204.52 286.59,-210.6"/>
<text text-anchor="middle" x="259.5" y="-194.26" font-family="Times New Roman,serif" font-size="14.00">c</text>
</g>
<!-- S0 S6 S12 S8 S4 S2 S7&#45;&gt;S0 S1 S12 S3 S8 S4 S2 S7 -->
<g id="edge2" class="edge">
<title>S0 S6 S12 S8 S4 S2 S7&#45;&gt;S0 S1 S12 S3 S8 S4 S2 S7</title>
<path fill="none" stroke="green" d="M238.29,-114.48C323.82,-108.41 451.25,-103.66 561.31,-116.95 572.95,-118.36 584.98,-120.34 596.95,-122.68"/>
<polygon fill="green" stroke="green" points="595.93,-126.04 606.42,-124.61 597.33,-119.18 595.93,-126.04"/>
<text text-anchor="middle" x="420.91" y="-120.15" font-family="Times New Roman,serif" font-size="14.00">b</text>
</g>
<!-- S9 S10&#45;&gt;S13 S11 S8 -->
<g id="edge8" class="edge">
<title>S9 S10&#45;&gt;S13 S11 S8</title>
<path fill="none" stroke="green" d="M872.02,-361.61C865.27,-359.26 858.14,-357.2 851.28,-355.95 829.03,-351.91 804.63,-353.72 782.76,-357.59"/>
<polygon fill="green" stroke="green" points="782.21,-354.13 773.07,-359.49 783.55,-361 782.21,-354.13"/>
<text text-anchor="middle" x="847.9" y="-359.15" font-family="Times New Roman,serif" font-size="14.00">d</text>
</g>
<!-- start -->
<g id="node6" class="node">
<title>start</title>
<ellipse fill="black" stroke="black" cx="1.8" cy="-123.45" rx="1.8" ry="1.8"/>
</g>
<!-- start&#45;&gt;S0 S6 S12 S8 S4 S2 S7 -->
<g id="edge1" class="edge">
<title>start&#45;&gt;S0 S6 S12 S8 S4 S2 S7</title>
<path fill="none" stroke="black" d="M3.67,-123.45C6.51,-123.45 16.09,-123.45 28.94,-123.45"/>
<polygon fill="black" stroke="black" points="28.9,-126.95 38.9,-123.45 28.9,-119.95 28.9,-126.95"/>
</g>
</g>
</svg>
