<?xml version="1.0" encoding="UTF-8" standalone="no"?>
<!DOCTYPE svg PUBLIC "-//W3C//DTD SVG 1.1//EN"
 "http://www.w3.org/Graphics/SVG/1.1/DTD/svg11.dtd">
<!-- Generated by graphviz version 12.2.1 (20241206.2353)
 -->
<!-- Pages: 1 -->
<svg width="704pt" height="231pt"
 viewBox="0.00 0.00 704.19 230.92" xmlns="http://www.w3.org/2000/svg" xmlns:xlink="http://www.w3.org/1999/xlink">
<g id="graph0" class="graph" transform="scale(1 1) rotate(0) translate(4 226.92)">
<polygon fill="white" stroke="none" points="-4,4 -4,-226.92 700.19,-226.92 700.19,4 -4,4"/>
<text text-anchor="middle" x="348.1" y="-7.2" font-family="Times New Roman,serif" font-size="14.00">Regular Expression: [aA]bdo+</text>
<!-- S7 S8 -->
<g id="node1" class="node">
<title>S7 S8</title>
<ellipse fill="none" stroke="black" cx="342.87" cy="-123.71" rx="32.93" ry="32.93"/>
<text text-anchor="middle" x="342.87" y="-118.66" font-family="Times New Roman,serif" font-size="14.00">S7 S8</text>
</g>
<!-- S12 S9 S10 -->
<g id="node3" class="node">
<title>S12 S9 S10</title>
<ellipse fill="none" stroke="black" cx="472.96" cy="-123.71" rx="54.42" ry="54.42"/>
<text text-anchor="middle" x="472.96" y="-118.66" font-family="Times New Roman,serif" font-size="14.00">S12 S9 S10</text>
</g>
<!-- S7 S8&#45;&gt;S12 S9 S10 -->
<g id="edge5" class="edge">
<title>S7 S8&#45;&gt;S12 S9 S10</title>
<path fill="none" stroke="green" d="M376.19,-123.71C385.55,-123.71 396.12,-123.71 406.74,-123.71"/>
<polygon fill="green" stroke="green" points="406.7,-127.21 416.7,-123.71 406.7,-120.21 406.7,-127.21"/>
<text text-anchor="middle" x="397.17" y="-126.91" font-family="Times New Roman,serif" font-size="14.00">d</text>
</g>
<!-- S1 S3 S6 -->
<g id="node2" class="node">
<title>S1 S3 S6</title>
<ellipse fill="none" stroke="black" cx="221.98" cy="-177.71" rx="45.21" ry="45.21"/>
<text text-anchor="middle" x="221.98" y="-172.66" font-family="Times New Roman,serif" font-size="14.00">S1 S3 S6</text>
</g>
<!-- S1 S3 S6&#45;&gt;S7 S8 -->
<g id="edge8" class="edge">
<title>S1 S3 S6&#45;&gt;S7 S8</title>
<path fill="none" stroke="green" d="M263.56,-159.28C275.94,-153.65 289.54,-147.48 301.89,-141.87"/>
<polygon fill="green" stroke="green" points="303.31,-145.07 310.97,-137.74 300.41,-138.69 303.31,-145.07"/>
<text text-anchor="middle" x="288.56" y="-152.29" font-family="Times New Roman,serif" font-size="14.00">b</text>
</g>
<!-- S13 S11 S10 -->
<g id="node5" class="node">
<title>S13 S11 S10</title>
<ellipse fill="lightgray" stroke="black" cx="633.16" cy="-123.71" rx="59.03" ry="59.03"/>
<ellipse fill="none" stroke="black" cx="633.16" cy="-123.71" rx="63.03" ry="63.03"/>
<text text-anchor="middle" x="633.16" y="-118.66" font-family="Times New Roman,serif" font-size="14.00">S13 S11 S10</text>
</g>
<!-- S12 S9 S10&#45;&gt;S13 S11 S10 -->
<g id="edge6" class="edge">
<title>S12 S9 S10&#45;&gt;S13 S11 S10</title>
<path fill="none" stroke="green" d="M527.52,-123.71C537.46,-123.71 548.01,-123.71 558.42,-123.71"/>
<polygon fill="green" stroke="green" points="558.13,-127.21 568.13,-123.71 558.13,-120.21 558.13,-127.21"/>
<text text-anchor="middle" x="548.76" y="-126.91" font-family="Times New Roman,serif" font-size="14.00">o</text>
</g>
<!-- S1 S5 S6 -->
<g id="node4" class="node">
<title>S1 S5 S6</title>
<ellipse fill="none" stroke="black" cx="221.98" cy="-69.71" rx="45.21" ry="45.21"/>
<text text-anchor="middle" x="221.98" y="-64.66" font-family="Times New Roman,serif" font-size="14.00">S1 S5 S6</text>
</g>
<!-- S1 S5 S6&#45;&gt;S7 S8 -->
<g id="edge4" class="edge">
<title>S1 S5 S6&#45;&gt;S7 S8</title>
<path fill="none" stroke="green" d="M263.56,-88.14C275.94,-93.77 289.54,-99.94 301.89,-105.55"/>
<polygon fill="green" stroke="green" points="300.41,-108.73 310.97,-109.68 303.31,-102.35 300.41,-108.73"/>
<text text-anchor="middle" x="288.56" y="-103.14" font-family="Times New Roman,serif" font-size="14.00">b</text>
</g>
<!-- S13 S11 S10&#45;&gt;S13 S11 S10 -->
<g id="edge7" class="edge">
<title>S13 S11 S10&#45;&gt;S13 S11 S10</title>
<path fill="none" stroke="green" d="M618.15,-185.19C620,-196.66 625,-204.74 633.16,-204.74 638.39,-204.74 642.32,-201.42 644.96,-196.02"/>
<polygon fill="green" stroke="green" points="648.26,-197.22 647.75,-186.64 641.55,-195.23 648.26,-197.22"/>
<text text-anchor="middle" x="633.16" y="-207.94" font-family="Times New Roman,serif" font-size="14.00">o</text>
</g>
<!-- S4 S0 S2 -->
<g id="node6" class="node">
<title>S4 S0 S2</title>
<ellipse fill="lightblue" stroke="black" cx="85.81" cy="-123.71" rx="45.21" ry="45.21"/>
<text text-anchor="middle" x="85.81" y="-118.66" font-family="Times New Roman,serif" font-size="14.00">S4 S0 S2</text>
</g>
<!-- S4 S0 S2&#45;&gt;S1 S3 S6 -->
<g id="edge2" class="edge">
<title>S4 S0 S2&#45;&gt;S1 S3 S6</title>
<path fill="none" stroke="green" d="M128.16,-140.35C141.04,-145.54 155.41,-151.32 168.93,-156.76"/>
<polygon fill="green" stroke="green" points="167.55,-159.98 178.13,-160.46 170.16,-153.48 167.55,-159.98"/>
<text text-anchor="middle" x="153.89" y="-155.53" font-family="Times New Roman,serif" font-size="14.00">a</text>
</g>
<!-- S4 S0 S2&#45;&gt;S1 S5 S6 -->
<g id="edge3" class="edge">
<title>S4 S0 S2&#45;&gt;S1 S5 S6</title>
<path fill="none" stroke="green" d="M128.16,-107.07C141.04,-101.88 155.41,-96.1 168.93,-90.66"/>
<polygon fill="green" stroke="green" points="170.16,-93.94 178.13,-86.96 167.55,-87.44 170.16,-93.94"/>
<text text-anchor="middle" x="153.89" y="-101.53" font-family="Times New Roman,serif" font-size="14.00">A</text>
</g>
<!-- start -->
<g id="node7" class="node">
<title>start</title>
<ellipse fill="black" stroke="black" cx="1.8" cy="-123.71" rx="1.8" ry="1.8"/>
</g>
<!-- start&#45;&gt;S4 S0 S2 -->
<g id="edge1" class="edge">
<title>start&#45;&gt;S4 S0 S2</title>
<path fill="none" stroke="black" d="M3.96,-123.71C7.27,-123.71 17.29,-123.71 29.2,-123.71"/>
<polygon fill="black" stroke="black" points="29.02,-127.21 39.02,-123.71 29.02,-120.21 29.02,-127.21"/>
</g>
</g>
</svg>
