<?xml version="1.0" encoding="UTF-8" standalone="no"?>
<!DOCTYPE svg PUBLIC "-//W3C//DTD SVG 1.1//EN"
 "http://www.w3.org/Graphics/SVG/1.1/DTD/svg11.dtd">
<!-- Generated by graphviz version 2.43.0 (0)
 -->
<!-- Title: %3 Pages: 1 -->
<svg width="467pt" height="144pt"
 viewBox="0.00 0.00 467.08 144.50" xmlns="http://www.w3.org/2000/svg" xmlns:xlink="http://www.w3.org/1999/xlink">
<g id="graph0" class="graph" transform="scale(1 1) rotate(0) translate(4 140.5)">
<title>%3</title>
<polygon fill="white" stroke="transparent" points="-4,4 -4,-140.5 463.08,-140.5 463.08,4 -4,4"/>
<text text-anchor="middle" x="229.54" y="-7.8" font-family="Times,serif" font-size="14.00">Regular Expression: [aA]bdo+</text>
<!-- S4 -->
<g id="node1" class="node">
<title>S4</title>
<ellipse fill="none" stroke="black" cx="337.84" cy="-76.75" rx="23" ry="23"/>
<text text-anchor="middle" x="337.84" y="-73.05" font-family="Times,serif" font-size="14.00">S4</text>
</g>
<!-- S1 -->
<g id="node3" class="node">
<title>S1</title>
<ellipse fill="lightgray" stroke="black" cx="432.33" cy="-76.75" rx="22.96" ry="22.96"/>
<ellipse fill="none" stroke="black" cx="432.33" cy="-76.75" rx="27" ry="27"/>
<text text-anchor="middle" x="432.33" y="-73.05" font-family="Times,serif" font-size="14.00">S1</text>
</g>
<!-- S4&#45;&gt;S1 -->
<g id="edge6" class="edge">
<title>S4&#45;&gt;S1</title>
<path fill="none" stroke="green" d="M360.76,-76.75C370.98,-76.75 383.43,-76.75 395,-76.75"/>
<polygon fill="green" stroke="green" points="395.3,-80.25 405.3,-76.75 395.3,-73.25 395.3,-80.25"/>
<text text-anchor="middle" x="383.08" y="-80.55" font-family="Times,serif" font-size="14.00">o</text>
</g>
<!-- S0 -->
<g id="node2" class="node">
<title>S0</title>
<ellipse fill="none" stroke="black" cx="154.84" cy="-108.75" rx="23" ry="23"/>
<text text-anchor="middle" x="154.84" y="-105.05" font-family="Times,serif" font-size="14.00">S0</text>
</g>
<!-- S2 -->
<g id="node5" class="node">
<title>S2</title>
<ellipse fill="none" stroke="black" cx="246.34" cy="-76.75" rx="23" ry="23"/>
<text text-anchor="middle" x="246.34" y="-73.05" font-family="Times,serif" font-size="14.00">S2</text>
</g>
<!-- S0&#45;&gt;S2 -->
<g id="edge8" class="edge">
<title>S0&#45;&gt;S2</title>
<path fill="none" stroke="green" d="M176.6,-101.33C188.01,-97.25 202.37,-92.11 215.01,-87.59"/>
<polygon fill="green" stroke="green" points="216.46,-90.79 224.7,-84.13 214.1,-84.2 216.46,-90.79"/>
<text text-anchor="middle" x="200.59" y="-96.55" font-family="Times,serif" font-size="14.00">b</text>
</g>
<!-- S1&#45;&gt;S1 -->
<g id="edge7" class="edge">
<title>S1&#45;&gt;S1</title>
<path fill="none" stroke="green" d="M423.41,-102.05C422.8,-112.57 425.77,-121.5 432.33,-121.5 436.64,-121.5 439.4,-117.65 440.61,-112.04"/>
<polygon fill="green" stroke="green" points="444.11,-112.25 441.25,-102.05 437.12,-111.81 444.11,-112.25"/>
<text text-anchor="middle" x="432.33" y="-125.3" font-family="Times,serif" font-size="14.00">o</text>
</g>
<!-- S3 -->
<g id="node4" class="node">
<title>S3</title>
<ellipse fill="lightblue" stroke="black" cx="63.35" cy="-76.75" rx="23" ry="23"/>
<text text-anchor="middle" x="63.35" y="-73.05" font-family="Times,serif" font-size="14.00">S3</text>
</g>
<!-- S3&#45;&gt;S0 -->
<g id="edge2" class="edge">
<title>S3&#45;&gt;S0</title>
<path fill="none" stroke="green" d="M85.11,-84.17C96.51,-88.25 110.88,-93.38 123.52,-97.9"/>
<polygon fill="green" stroke="green" points="122.6,-101.3 133.2,-101.37 124.96,-94.7 122.6,-101.3"/>
<text text-anchor="middle" x="109.1" y="-96.55" font-family="Times,serif" font-size="14.00">a</text>
</g>
<!-- S5 -->
<g id="node6" class="node">
<title>S5</title>
<ellipse fill="none" stroke="black" cx="154.84" cy="-45.75" rx="23" ry="23"/>
<text text-anchor="middle" x="154.84" y="-42.05" font-family="Times,serif" font-size="14.00">S5</text>
</g>
<!-- S3&#45;&gt;S5 -->
<g id="edge3" class="edge">
<title>S3&#45;&gt;S5</title>
<path fill="none" stroke="green" d="M85.11,-69.56C96.51,-65.61 110.88,-60.63 123.52,-56.25"/>
<polygon fill="green" stroke="green" points="124.9,-59.48 133.2,-52.9 122.6,-52.86 124.9,-59.48"/>
<text text-anchor="middle" x="109.1" y="-66.55" font-family="Times,serif" font-size="14.00">A</text>
</g>
<!-- S2&#45;&gt;S4 -->
<g id="edge5" class="edge">
<title>S2&#45;&gt;S4</title>
<path fill="none" stroke="green" d="M269.46,-76.75C280.08,-76.75 293.01,-76.75 304.69,-76.75"/>
<polygon fill="green" stroke="green" points="304.97,-80.25 314.97,-76.75 304.97,-73.25 304.97,-80.25"/>
<text text-anchor="middle" x="292.09" y="-80.55" font-family="Times,serif" font-size="14.00">d</text>
</g>
<!-- S5&#45;&gt;S2 -->
<g id="edge4" class="edge">
<title>S5&#45;&gt;S2</title>
<path fill="none" stroke="green" d="M176.6,-52.94C188.01,-56.89 202.37,-61.86 215.01,-66.24"/>
<polygon fill="green" stroke="green" points="214.1,-69.63 224.7,-69.6 216.39,-63.02 214.1,-69.63"/>
<text text-anchor="middle" x="200.59" y="-66.55" font-family="Times,serif" font-size="14.00">b</text>
</g>
<!-- start -->
<g id="node7" class="node">
<title>start</title>
<ellipse fill="black" stroke="black" cx="1.8" cy="-76.75" rx="1.8" ry="1.8"/>
</g>
<!-- start&#45;&gt;S3 -->
<g id="edge1" class="edge">
<title>start&#45;&gt;S3</title>
<path fill="none" stroke="black" d="M3.83,-76.75C7.23,-76.75 18.48,-76.75 30.22,-76.75"/>
<polygon fill="black" stroke="black" points="30.48,-80.25 40.48,-76.75 30.48,-73.25 30.48,-80.25"/>
</g>
</g>
</svg>
