<?xml version="1.0" encoding="UTF-8" standalone="no"?>
<!DOCTYPE svg PUBLIC "-//W3C//DTD SVG 1.1//EN"
 "http://www.w3.org/Graphics/SVG/1.1/DTD/svg11.dtd">
<!-- Generated by graphviz version 12.2.1 (20241206.2353)
 -->
<!-- Pages: 1 -->
<svg width="151pt" height="119pt"
 viewBox="0.00 0.00 150.75 119.36" xmlns="http://www.w3.org/2000/svg" xmlns:xlink="http://www.w3.org/1999/xlink">
<g id="graph0" class="graph" transform="scale(1 1) rotate(0) translate(4 115.36)">
<polygon fill="white" stroke="none" points="-4,4 -4,-115.36 146.75,-115.36 146.75,4 -4,4"/>
<text text-anchor="middle" x="71.38" y="-7.2" font-family="Times New Roman,serif" font-size="14.00">Regular Expression: a*</text>
<!-- G1 -->
<g id="node1" class="node">
<title>G1</title>
<ellipse fill="lightgray" stroke="black" cx="91.68" cy="-50.68" rx="22.18" ry="22.18"/>
<ellipse fill="none" stroke="black" cx="91.68" cy="-50.68" rx="26.18" ry="26.18"/>
<text text-anchor="middle" x="91.68" y="-45.63" font-family="Times New Roman,serif" font-size="14.00">G1</text>
</g>
<!-- G1&#45;&gt;G1 -->
<g id="edge2" class="edge">
<title>G1&#45;&gt;G1</title>
<path fill="none" stroke="green" d="M83.37,-75.66C82.8,-86.05 85.57,-94.86 91.68,-94.86 95.3,-94.86 97.75,-91.75 99.02,-87.05"/>
<polygon fill="green" stroke="green" points="102.5,-87.42 99.85,-77.17 95.53,-86.84 102.5,-87.42"/>
<text text-anchor="middle" x="91.68" y="-98.06" font-family="Times New Roman,serif" font-size="14.00">a</text>
</g>
<!-- start -->
<g id="node2" class="node">
<title>start</title>
<ellipse fill="black" stroke="black" cx="26.7" cy="-50.68" rx="1.8" ry="1.8"/>
</g>
<!-- start&#45;&gt;G1 -->
<g id="edge1" class="edge">
<title>start&#45;&gt;G1</title>
<path fill="none" stroke="black" d="M28.79,-50.68C32.1,-50.68 42.47,-50.68 53.8,-50.68"/>
<polygon fill="black" stroke="black" points="53.71,-54.18 63.71,-50.68 53.71,-47.18 53.71,-54.18"/>
</g>
</g>
</svg>
