<?xml version="1.0" encoding="UTF-8" standalone="no"?>
<!DOCTYPE svg PUBLIC "-//W3C//DTD SVG 1.1//EN"
 "http://www.w3.org/Graphics/SVG/1.1/DTD/svg11.dtd">
<!-- Generated by graphviz version 12.2.1 (20241206.2353)
 -->
<!-- Pages: 1 -->
<svg width="696pt" height="451pt"
 viewBox="0.00 0.00 696.41 450.92" xmlns="http://www.w3.org/2000/svg" xmlns:xlink="http://www.w3.org/1999/xlink">
<g id="graph0" class="graph" transform="scale(1 1) rotate(0) translate(4 446.92)">
<polygon fill="white" stroke="none" points="-4,4 -4,-446.92 692.41,-446.92 692.41,4 -4,4"/>
<text text-anchor="middle" x="344.2" y="-7.2" font-family="Times New Roman,serif" font-size="14.00">Regular Expression: [bc]*(cd)+</text>
<!-- S11 S8 S13 -->
<g id="node1" class="node">
<title>S11 S8 S13</title>
<ellipse fill="lightgray" stroke="black" cx="447.08" cy="-382.02" rx="54.42" ry="54.42"/>
<ellipse fill="none" stroke="black" cx="447.08" cy="-382.02" rx="58.42" ry="58.42"/>
<text text-anchor="middle" x="447.08" y="-376.97" font-family="Times New Roman,serif" font-size="14.00">S11 S8 S13</text>
</g>
<!-- S9 S10 -->
<g id="node3" class="node">
<title>S9 S10</title>
<ellipse fill="none" stroke="black" cx="650.88" cy="-382.02" rx="37.53" ry="37.53"/>
<text text-anchor="middle" x="650.88" y="-376.97" font-family="Times New Roman,serif" font-size="14.00">S9 S10</text>
</g>
<!-- S11 S8 S13&#45;&gt;S9 S10 -->
<g id="edge7" class="edge">
<title>S11 S8 S13&#45;&gt;S9 S10</title>
<path fill="none" stroke="green" d="M505.91,-382.02C536.21,-382.02 572.88,-382.02 601.64,-382.02"/>
<polygon fill="green" stroke="green" points="601.52,-385.52 611.52,-382.02 601.52,-378.52 601.52,-385.52"/>
<text text-anchor="middle" x="591.97" y="-385.22" font-family="Times New Roman,serif" font-size="14.00">c</text>
</g>
<!-- S1 S4 S7 S2 S12 S0 S8 S6 S3 -->
<g id="node2" class="node">
<title>S1 S4 S7 S2 S12 S0 S8 S6 S3</title>
<ellipse fill="lightblue" stroke="black" cx="447.08" cy="-148.02" rx="123.52" ry="123.52"/>
<text text-anchor="middle" x="447.08" y="-142.97" font-family="Times New Roman,serif" font-size="14.00">S1 S4 S7 S2 S12 S0 S8 S6 S3</text>
</g>
<!-- S1 S4 S7 S2 S12 S0 S8 S6 S3&#45;&gt;S1 S4 S7 S2 S12 S0 S8 S6 S3 -->
<g id="edge2" class="edge">
<title>S1 S4 S7 S2 S12 S0 S8 S6 S3&#45;&gt;S1 S4 S7 S2 S12 S0 S8 S6 S3</title>
<path fill="none" stroke="green" d="M424.93,-269.8C429.37,-281.86 436.75,-289.53 447.08,-289.53 454.18,-289.53 459.89,-285.91 464.21,-279.72"/>
<polygon fill="green" stroke="green" points="467.15,-281.65 468.55,-271.15 460.91,-278.49 467.15,-281.65"/>
<text text-anchor="middle" x="447.08" y="-292.73" font-family="Times New Roman,serif" font-size="14.00">b</text>
</g>
<!-- S5 S1 S4 S7 S2 S9 S12 S0 S8 S10 -->
<g id="node4" class="node">
<title>S5 S1 S4 S7 S2 S9 S12 S0 S8 S10</title>
<ellipse fill="none" stroke="black" cx="140.41" cy="-268.02" rx="140.41" ry="140.41"/>
<text text-anchor="middle" x="140.41" y="-262.97" font-family="Times New Roman,serif" font-size="14.00">S5 S1 S4 S7 S2 S9 S12 S0 S8 S10</text>
</g>
<!-- S1 S4 S7 S2 S12 S0 S8 S6 S3&#45;&gt;S5 S1 S4 S7 S2 S9 S12 S0 S8 S10 -->
<g id="edge3" class="edge">
<title>S1 S4 S7 S2 S12 S0 S8 S6 S3&#45;&gt;S5 S1 S4 S7 S2 S9 S12 S0 S8 S10</title>
<path fill="none" stroke="green" d="M331.44,-191.78C320.4,-196.06 309.39,-200.36 298.81,-204.52 293.16,-206.74 287.39,-209.02 281.57,-211.33"/>
<polygon fill="green" stroke="green" points="280.45,-208.01 272.45,-214.96 283.03,-214.51 280.45,-208.01"/>
<text text-anchor="middle" x="302.19" y="-207.72" font-family="Times New Roman,serif" font-size="14.00">c</text>
</g>
<!-- S9 S10&#45;&gt;S11 S8 S13 -->
<g id="edge8" class="edge">
<title>S9 S10&#45;&gt;S11 S8 S13</title>
<path fill="none" stroke="green" d="M616.09,-367.18C609.34,-364.83 602.21,-362.76 595.34,-361.52 569.02,-356.73 539.87,-359.18 514.49,-363.79"/>
<polygon fill="green" stroke="green" points="514.11,-360.3 504.98,-365.67 515.47,-367.17 514.11,-360.3"/>
<text text-anchor="middle" x="591.97" y="-364.72" font-family="Times New Roman,serif" font-size="14.00">d</text>
</g>
<!-- S5 S1 S4 S7 S2 S9 S12 S0 S8 S10&#45;&gt;S11 S8 S13 -->
<g id="edge6" class="edge">
<title>S5 S1 S4 S7 S2 S9 S12 S0 S8 S10&#45;&gt;S11 S8 S13</title>
<path fill="none" stroke="green" d="M272.38,-317.02C310.2,-331.18 349.81,-346 381.64,-357.91"/>
<polygon fill="green" stroke="green" points="380.11,-361.07 390.71,-361.3 382.57,-354.52 380.11,-361.07"/>
<text text-anchor="middle" x="302.19" y="-331.63" font-family="Times New Roman,serif" font-size="14.00">d</text>
</g>
<!-- S5 S1 S4 S7 S2 S9 S12 S0 S8 S10&#45;&gt;S1 S4 S7 S2 S12 S0 S8 S6 S3 -->
<g id="edge4" class="edge">
<title>S5 S1 S4 S7 S2 S9 S12 S0 S8 S10&#45;&gt;S1 S4 S7 S2 S12 S0 S8 S6 S3</title>
<path fill="none" stroke="green" d="M276.52,-231.7C286.43,-228.31 296.2,-224.75 305.56,-221.02 312.94,-218.08 320.44,-214.88 327.94,-211.5"/>
<polygon fill="green" stroke="green" points="329.15,-214.8 336.78,-207.44 326.23,-208.44 329.15,-214.8"/>
<text text-anchor="middle" x="302.19" y="-225.89" font-family="Times New Roman,serif" font-size="14.00">b</text>
</g>
<!-- S5 S1 S4 S7 S2 S9 S12 S0 S8 S10&#45;&gt;S5 S1 S4 S7 S2 S9 S12 S0 S8 S10 -->
<g id="edge5" class="edge">
<title>S5 S1 S4 S7 S2 S9 S12 S0 S8 S10&#45;&gt;S5 S1 S4 S7 S2 S9 S12 S0 S8 S10</title>
<path fill="none" stroke="green" d="M116.63,-406.77C121.66,-418.86 129.58,-426.42 140.41,-426.42 147.85,-426.42 153.92,-422.85 158.62,-416.69"/>
<polygon fill="green" stroke="green" points="161.6,-418.53 163.44,-408.09 155.5,-415.1 161.6,-418.53"/>
<text text-anchor="middle" x="140.41" y="-429.62" font-family="Times New Roman,serif" font-size="14.00">c</text>
</g>
<!-- start -->
<g id="node5" class="node">
<title>start</title>
<ellipse fill="black" stroke="black" cx="140.41" cy="-108.02" rx="1.8" ry="1.8"/>
</g>
<!-- start&#45;&gt;S1 S4 S7 S2 S12 S0 S8 S6 S3 -->
<g id="edge1" class="edge">
<title>start&#45;&gt;S1 S4 S7 S2 S12 S0 S8 S6 S3</title>
<path fill="none" stroke="black" d="M142.53,-108.06C152.26,-108.49 223.49,-111.74 280.81,-119.02 291.65,-120.39 302.86,-121.99 314.1,-123.71"/>
<polygon fill="black" stroke="black" points="313.42,-127.14 323.84,-125.23 314.5,-120.23 313.42,-127.14"/>
</g>
</g>
</svg>
