<?xml version="1.0" encoding="UTF-8" standalone="no"?>
<!DOCTYPE svg PUBLIC "-//W3C//DTD SVG 1.1//EN"
 "http://www.w3.org/Graphics/SVG/1.1/DTD/svg11.dtd">
<!-- Generated by graphviz version 12.2.1 (20241206.2353)
 -->
<!-- Pages: 1 -->
<svg width="151pt" height="116pt"
 viewBox="0.00 0.00 150.75 116.29" xmlns="http://www.w3.org/2000/svg" xmlns:xlink="http://www.w3.org/1999/xlink">
<g id="graph0" class="graph" transform="scale(1 1) rotate(0) translate(4 112.29)">
<polygon fill="white" stroke="none" points="-4,4 -4,-112.29 146.75,-112.29 146.75,4 -4,4"/>
<text text-anchor="middle" x="71.38" y="-7.2" font-family="Times New Roman,serif" font-size="14.00">Regular Expression: a*</text>
<!-- S1 -->
<g id="node1" class="node">
<title>S1</title>
<ellipse fill="lightgray" stroke="black" cx="91.67" cy="-49.14" rx="20.64" ry="20.64"/>
<ellipse fill="none" stroke="black" cx="91.67" cy="-49.14" rx="24.64" ry="24.64"/>
<text text-anchor="middle" x="91.67" y="-44.09" font-family="Times New Roman,serif" font-size="14.00">S1</text>
</g>
<!-- S1&#45;&gt;S1 -->
<g id="edge2" class="edge">
<title>S1&#45;&gt;S1</title>
<path fill="none" stroke="green" d="M83.68,-72.82C83.03,-83.04 85.69,-91.79 91.67,-91.79 95.23,-91.79 97.61,-88.7 98.82,-84.06"/>
<polygon fill="green" stroke="green" points="102.29,-84.57 99.55,-74.33 95.31,-84.04 102.29,-84.57"/>
<text text-anchor="middle" x="91.67" y="-94.99" font-family="Times New Roman,serif" font-size="14.00">a</text>
</g>
<!-- start -->
<g id="node2" class="node">
<title>start</title>
<ellipse fill="black" stroke="black" cx="28.23" cy="-49.14" rx="1.8" ry="1.8"/>
</g>
<!-- start&#45;&gt;S1 -->
<g id="edge1" class="edge">
<title>start&#45;&gt;S1</title>
<path fill="none" stroke="black" d="M30.3,-49.14C33.6,-49.14 44.1,-49.14 55.44,-49.14"/>
<polygon fill="black" stroke="black" points="55.31,-52.64 65.31,-49.14 55.31,-45.64 55.31,-52.64"/>
</g>
</g>
</svg>
