<?xml version="1.0" encoding="UTF-8" standalone="no"?>
<!DOCTYPE svg PUBLIC "-//W3C//DTD SVG 1.1//EN"
 "http://www.w3.org/Graphics/SVG/1.1/DTD/svg11.dtd">
<!-- Generated by graphviz version 12.2.1 (20241206.2353)
 -->
<!-- Pages: 1 -->
<svg width="225pt" height="185pt"
 viewBox="0.00 0.00 225.36 184.94" xmlns="http://www.w3.org/2000/svg" xmlns:xlink="http://www.w3.org/1999/xlink">
<g id="graph0" class="graph" transform="scale(1 1) rotate(0) translate(4 180.94)">
<polygon fill="white" stroke="none" points="-4,4 -4,-180.94 221.36,-180.94 221.36,4 -4,4"/>
<text text-anchor="middle" x="108.68" y="-7.2" font-family="Times New Roman,serif" font-size="14.00">Regular Expression: [bc]*(cd)+</text>
<!-- S2 -->
<g id="node1" class="node">
<title>S2</title>
<ellipse fill="none" stroke="black" cx="20.64" cy="-99.3" rx="20.64" ry="20.64"/>
<text text-anchor="middle" x="20.64" y="-94.25" font-family="Times New Roman,serif" font-size="14.00">S2</text>
</g>
<!-- S2&#45;&gt;S2 -->
<g id="edge5" class="edge">
<title>S2&#45;&gt;S2</title>
<path fill="none" stroke="green" d="M13.04,-118.79C11.87,-128.86 14.41,-137.94 20.64,-137.94 24.35,-137.94 26.74,-134.74 27.84,-130.03"/>
<polygon fill="green" stroke="green" points="31.32,-130.42 28.19,-120.3 24.33,-130.16 31.32,-130.42"/>
<text text-anchor="middle" x="20.64" y="-141.14" font-family="Times New Roman,serif" font-size="14.00">c</text>
</g>
<!-- S0 -->
<g id="node2" class="node">
<title>S0</title>
<ellipse fill="lightblue" stroke="black" cx="108.68" cy="-54.3" rx="20.64" ry="20.64"/>
<text text-anchor="middle" x="108.68" y="-49.25" font-family="Times New Roman,serif" font-size="14.00">S0</text>
</g>
<!-- S2&#45;&gt;S0 -->
<g id="edge4" class="edge">
<title>S2&#45;&gt;S0</title>
<path fill="none" stroke="green" d="M39.45,-90.7C47.6,-86.71 57.35,-81.85 66.04,-77.3 70.69,-74.86 75.6,-72.22 80.35,-69.62"/>
<polygon fill="green" stroke="green" points="81.96,-72.73 89.02,-64.83 78.58,-66.6 81.96,-72.73"/>
<text text-anchor="middle" x="62.66" y="-83.6" font-family="Times New Roman,serif" font-size="14.00">b</text>
</g>
<!-- S1 -->
<g id="node4" class="node">
<title>S1</title>
<ellipse fill="lightgray" stroke="black" cx="108.68" cy="-152.3" rx="20.64" ry="20.64"/>
<ellipse fill="none" stroke="black" cx="108.68" cy="-152.3" rx="24.64" ry="24.64"/>
<text text-anchor="middle" x="108.68" y="-147.25" font-family="Times New Roman,serif" font-size="14.00">S1</text>
</g>
<!-- S2&#45;&gt;S1 -->
<g id="edge6" class="edge">
<title>S2&#45;&gt;S1</title>
<path fill="none" stroke="green" d="M38.64,-109.77C49.72,-116.6 64.5,-125.7 77.53,-133.73"/>
<polygon fill="green" stroke="green" points="75.44,-136.55 85.79,-138.81 79.11,-130.59 75.44,-136.55"/>
<text text-anchor="middle" x="62.66" y="-129" font-family="Times New Roman,serif" font-size="14.00">d</text>
</g>
<!-- S0&#45;&gt;S2 -->
<g id="edge3" class="edge">
<title>S0&#45;&gt;S2</title>
<path fill="none" stroke="green" d="M87.98,-54.05C78.83,-54.64 68.07,-56.39 59.29,-60.8 52.6,-64.16 46.41,-69.18 41.06,-74.5"/>
<polygon fill="green" stroke="green" points="38.58,-72.03 34.43,-81.78 43.75,-76.75 38.58,-72.03"/>
<text text-anchor="middle" x="62.66" y="-64" font-family="Times New Roman,serif" font-size="14.00">c</text>
</g>
<!-- S0&#45;&gt;S0 -->
<g id="edge2" class="edge">
<title>S0&#45;&gt;S0</title>
<path fill="none" stroke="green" d="M100.41,-73.39C99,-83.62 101.76,-92.94 108.68,-92.94 112.79,-92.94 115.43,-89.66 116.6,-84.84"/>
<polygon fill="green" stroke="green" points="120.1,-85 116.91,-74.9 113.1,-84.79 120.1,-85"/>
<text text-anchor="middle" x="108.68" y="-96.14" font-family="Times New Roman,serif" font-size="14.00">b</text>
</g>
<!-- S3 -->
<g id="node3" class="node">
<title>S3</title>
<ellipse fill="none" stroke="black" cx="196.71" cy="-152.3" rx="20.64" ry="20.64"/>
<text text-anchor="middle" x="196.71" y="-147.25" font-family="Times New Roman,serif" font-size="14.00">S3</text>
</g>
<!-- S3&#45;&gt;S1 -->
<g id="edge8" class="edge">
<title>S3&#45;&gt;S1</title>
<path fill="none" stroke="green" d="M179.22,-141C172.9,-137.31 165.43,-133.67 158.07,-131.8 151.88,-130.22 145.46,-131.04 139.39,-133.06"/>
<polygon fill="green" stroke="green" points="138.05,-129.83 130.37,-137.12 140.92,-136.21 138.05,-129.83"/>
<text text-anchor="middle" x="154.7" y="-135" font-family="Times New Roman,serif" font-size="14.00">d</text>
</g>
<!-- S1&#45;&gt;S3 -->
<g id="edge7" class="edge">
<title>S1&#45;&gt;S3</title>
<path fill="none" stroke="green" d="M133.64,-152.3C143.15,-152.3 154.21,-152.3 164.34,-152.3"/>
<polygon fill="green" stroke="green" points="164.14,-155.8 174.14,-152.3 164.14,-148.8 164.14,-155.8"/>
<text text-anchor="middle" x="154.7" y="-155.5" font-family="Times New Roman,serif" font-size="14.00">c</text>
</g>
<!-- start -->
<g id="node5" class="node">
<title>start</title>
<ellipse fill="black" stroke="black" cx="20.64" cy="-26.3" rx="1.8" ry="1.8"/>
</g>
<!-- start&#45;&gt;S0 -->
<g id="edge1" class="edge">
<title>start&#45;&gt;S0</title>
<path fill="none" stroke="black" d="M22.74,-26.64C27.74,-28.18 48.82,-34.69 66.04,-40.3 69.85,-41.54 73.85,-42.87 77.81,-44.18"/>
<polygon fill="black" stroke="black" points="76.6,-47.47 87.2,-47.33 78.83,-40.83 76.6,-47.47"/>
</g>
</g>
</svg>
