<?xml version="1.0" encoding="UTF-8" standalone="no"?>
<!DOCTYPE svg PUBLIC "-//W3C//DTD SVG 1.1//EN"
 "http://www.w3.org/Graphics/SVG/1.1/DTD/svg11.dtd">
<!-- Generated by graphviz version 2.43.0 (0)
 -->
<!-- Title: %3 Pages: 1 -->
<svg width="1140pt" height="139pt"
 viewBox="0.00 0.00 1140.35 139.50" xmlns="http://www.w3.org/2000/svg" xmlns:xlink="http://www.w3.org/1999/xlink">
<g id="graph0" class="graph" transform="scale(1 1) rotate(0) translate(4 135.5)">
<title>%3</title>
<polygon fill="white" stroke="transparent" points="-4,4 -4,-135.5 1136.35,-135.5 1136.35,4 -4,4"/>
<text text-anchor="middle" x="566.17" y="-7.8" font-family="Times,serif" font-size="14.00">Regular Expression: [aA]bdo+</text>
<!-- start -->
<g id="node1" class="node">
<title>start</title>
<ellipse fill="black" stroke="black" cx="1.8" cy="-76.75" rx="1.8" ry="1.8"/>
</g>
<!-- S0 -->
<g id="node2" class="node">
<title>S0</title>
<ellipse fill="lightblue" stroke="black" cx="63.35" cy="-76.75" rx="23" ry="23"/>
<text text-anchor="middle" x="63.35" y="-73.05" font-family="Times,serif" font-size="14.00">S0</text>
</g>
<!-- start&#45;&gt;S0 -->
<g id="edge1" class="edge">
<title>start&#45;&gt;S0</title>
<path fill="none" stroke="black" d="M3.83,-76.75C7.23,-76.75 18.48,-76.75 30.22,-76.75"/>
<polygon fill="black" stroke="black" points="30.48,-80.25 40.48,-76.75 30.48,-73.25 30.48,-80.25"/>
</g>
<!-- S2 -->
<g id="node4" class="node">
<title>S2</title>
<ellipse fill="none" stroke="black" cx="152.84" cy="-108.75" rx="23" ry="23"/>
<text text-anchor="middle" x="152.84" y="-105.05" font-family="Times,serif" font-size="14.00">S2</text>
</g>
<!-- S0&#45;&gt;S2 -->
<g id="edge3" class="edge">
<title>S0&#45;&gt;S2</title>
<path fill="none" stroke="saddlebrown" d="M85.08,-84.33C95.98,-88.32 109.54,-93.28 121.59,-97.68"/>
<polygon fill="saddlebrown" stroke="saddlebrown" points="120.66,-101.07 131.26,-101.22 123.07,-94.5 120.66,-101.07"/>
<text text-anchor="middle" x="108.1" y="-96.55" font-family="Times,serif" font-size="14.00" fill="saddlebrown">ε</text>
</g>
<!-- S4 -->
<g id="node6" class="node">
<title>S4</title>
<ellipse fill="none" stroke="black" cx="152.84" cy="-45.75" rx="23" ry="23"/>
<text text-anchor="middle" x="152.84" y="-42.05" font-family="Times,serif" font-size="14.00">S4</text>
</g>
<!-- S0&#45;&gt;S4 -->
<g id="edge2" class="edge">
<title>S0&#45;&gt;S4</title>
<path fill="none" stroke="saddlebrown" d="M85.08,-69.4C95.98,-65.54 109.54,-60.74 121.59,-56.47"/>
<polygon fill="saddlebrown" stroke="saddlebrown" points="123,-59.68 131.26,-53.04 120.66,-53.08 123,-59.68"/>
<text text-anchor="middle" x="108.1" y="-65.55" font-family="Times,serif" font-size="14.00" fill="saddlebrown">ε</text>
</g>
<!-- S1 -->
<g id="node3" class="node">
<title>S1</title>
<ellipse fill="none" stroke="black" cx="333.84" cy="-76.75" rx="23" ry="23"/>
<text text-anchor="middle" x="333.84" y="-73.05" font-family="Times,serif" font-size="14.00">S1</text>
</g>
<!-- S6 -->
<g id="node8" class="node">
<title>S6</title>
<ellipse fill="none" stroke="black" cx="423.33" cy="-76.75" rx="23" ry="23"/>
<text text-anchor="middle" x="423.33" y="-73.05" font-family="Times,serif" font-size="14.00">S6</text>
</g>
<!-- S1&#45;&gt;S6 -->
<g id="edge4" class="edge">
<title>S1&#45;&gt;S6</title>
<path fill="none" stroke="saddlebrown" d="M356.91,-76.75C367.04,-76.75 379.24,-76.75 390.35,-76.75"/>
<polygon fill="saddlebrown" stroke="saddlebrown" points="390.56,-80.25 400.56,-76.75 390.56,-73.25 390.56,-80.25"/>
<text text-anchor="middle" x="378.58" y="-80.55" font-family="Times,serif" font-size="14.00" fill="saddlebrown">ε</text>
</g>
<!-- S3 -->
<g id="node5" class="node">
<title>S3</title>
<ellipse fill="none" stroke="black" cx="244.34" cy="-108.75" rx="23" ry="23"/>
<text text-anchor="middle" x="244.34" y="-105.05" font-family="Times,serif" font-size="14.00">S3</text>
</g>
<!-- S2&#45;&gt;S3 -->
<g id="edge5" class="edge">
<title>S2&#45;&gt;S3</title>
<path fill="none" stroke="green" d="M175.97,-108.75C186.59,-108.75 199.52,-108.75 211.2,-108.75"/>
<polygon fill="green" stroke="green" points="211.47,-112.25 221.47,-108.75 211.47,-105.25 211.47,-112.25"/>
<text text-anchor="middle" x="198.59" y="-112.55" font-family="Times,serif" font-size="14.00">a</text>
</g>
<!-- S3&#45;&gt;S1 -->
<g id="edge6" class="edge">
<title>S3&#45;&gt;S1</title>
<path fill="none" stroke="saddlebrown" d="M266.08,-101.16C276.97,-97.18 290.53,-92.22 302.58,-87.81"/>
<polygon fill="saddlebrown" stroke="saddlebrown" points="304.06,-91 312.25,-84.28 301.66,-84.42 304.06,-91"/>
<text text-anchor="middle" x="289.09" y="-96.55" font-family="Times,serif" font-size="14.00" fill="saddlebrown">ε</text>
</g>
<!-- S5 -->
<g id="node7" class="node">
<title>S5</title>
<ellipse fill="none" stroke="black" cx="244.34" cy="-45.75" rx="23" ry="23"/>
<text text-anchor="middle" x="244.34" y="-42.05" font-family="Times,serif" font-size="14.00">S5</text>
</g>
<!-- S4&#45;&gt;S5 -->
<g id="edge7" class="edge">
<title>S4&#45;&gt;S5</title>
<path fill="none" stroke="green" d="M175.97,-45.75C186.59,-45.75 199.52,-45.75 211.2,-45.75"/>
<polygon fill="green" stroke="green" points="211.47,-49.25 221.47,-45.75 211.47,-42.25 211.47,-49.25"/>
<text text-anchor="middle" x="198.59" y="-49.55" font-family="Times,serif" font-size="14.00">A</text>
</g>
<!-- S5&#45;&gt;S1 -->
<g id="edge8" class="edge">
<title>S5&#45;&gt;S1</title>
<path fill="none" stroke="saddlebrown" d="M266.08,-53.09C276.97,-56.96 290.53,-61.76 302.58,-66.03"/>
<polygon fill="saddlebrown" stroke="saddlebrown" points="301.65,-69.41 312.25,-69.45 303.99,-62.82 301.65,-69.41"/>
<text text-anchor="middle" x="289.09" y="-65.55" font-family="Times,serif" font-size="14.00" fill="saddlebrown">ε</text>
</g>
<!-- S7 -->
<g id="node9" class="node">
<title>S7</title>
<ellipse fill="none" stroke="black" cx="514.83" cy="-76.75" rx="23" ry="23"/>
<text text-anchor="middle" x="514.83" y="-73.05" font-family="Times,serif" font-size="14.00">S7</text>
</g>
<!-- S6&#45;&gt;S7 -->
<g id="edge9" class="edge">
<title>S6&#45;&gt;S7</title>
<path fill="none" stroke="green" d="M446.45,-76.75C457.08,-76.75 470,-76.75 481.69,-76.75"/>
<polygon fill="green" stroke="green" points="481.96,-80.25 491.96,-76.75 481.96,-73.25 481.96,-80.25"/>
<text text-anchor="middle" x="469.08" y="-80.55" font-family="Times,serif" font-size="14.00">b</text>
</g>
<!-- S8 -->
<g id="node10" class="node">
<title>S8</title>
<ellipse fill="none" stroke="black" cx="604.32" cy="-76.75" rx="23" ry="23"/>
<text text-anchor="middle" x="604.32" y="-73.05" font-family="Times,serif" font-size="14.00">S8</text>
</g>
<!-- S7&#45;&gt;S8 -->
<g id="edge10" class="edge">
<title>S7&#45;&gt;S8</title>
<path fill="none" stroke="saddlebrown" d="M537.91,-76.75C548.03,-76.75 560.24,-76.75 571.34,-76.75"/>
<polygon fill="saddlebrown" stroke="saddlebrown" points="571.56,-80.25 581.55,-76.75 571.55,-73.25 571.56,-80.25"/>
<text text-anchor="middle" x="559.58" y="-80.55" font-family="Times,serif" font-size="14.00" fill="saddlebrown">ε</text>
</g>
<!-- S9 -->
<g id="node11" class="node">
<title>S9</title>
<ellipse fill="none" stroke="black" cx="695.82" cy="-76.75" rx="23" ry="23"/>
<text text-anchor="middle" x="695.82" y="-73.05" font-family="Times,serif" font-size="14.00">S9</text>
</g>
<!-- S8&#45;&gt;S9 -->
<g id="edge11" class="edge">
<title>S8&#45;&gt;S9</title>
<path fill="none" stroke="green" d="M627.45,-76.75C638.07,-76.75 651,-76.75 662.68,-76.75"/>
<polygon fill="green" stroke="green" points="662.95,-80.25 672.95,-76.75 662.95,-73.25 662.95,-80.25"/>
<text text-anchor="middle" x="650.07" y="-80.55" font-family="Times,serif" font-size="14.00">d</text>
</g>
<!-- S12 -->
<g id="node14" class="node">
<title>S12</title>
<ellipse fill="none" stroke="black" cx="791.17" cy="-76.75" rx="28.7" ry="28.7"/>
<text text-anchor="middle" x="791.17" y="-73.05" font-family="Times,serif" font-size="14.00">S12</text>
</g>
<!-- S9&#45;&gt;S12 -->
<g id="edge12" class="edge">
<title>S9&#45;&gt;S12</title>
<path fill="none" stroke="saddlebrown" d="M718.94,-76.75C728.93,-76.75 741.02,-76.75 752.37,-76.75"/>
<polygon fill="saddlebrown" stroke="saddlebrown" points="752.52,-80.25 762.52,-76.75 752.52,-73.25 752.52,-80.25"/>
<text text-anchor="middle" x="740.57" y="-80.55" font-family="Times,serif" font-size="14.00" fill="saddlebrown">ε</text>
</g>
<!-- S10 -->
<g id="node12" class="node">
<title>S10</title>
<ellipse fill="none" stroke="black" cx="892.36" cy="-76.75" rx="28.7" ry="28.7"/>
<text text-anchor="middle" x="892.36" y="-73.05" font-family="Times,serif" font-size="14.00">S10</text>
</g>
<!-- S11 -->
<g id="node13" class="node">
<title>S11</title>
<ellipse fill="none" stroke="black" cx="994.56" cy="-76.75" rx="28.7" ry="28.7"/>
<text text-anchor="middle" x="994.56" y="-73.05" font-family="Times,serif" font-size="14.00">S11</text>
</g>
<!-- S10&#45;&gt;S11 -->
<g id="edge13" class="edge">
<title>S10&#45;&gt;S11</title>
<path fill="none" stroke="green" d="M921,-76.75C931.65,-76.75 944,-76.75 955.45,-76.75"/>
<polygon fill="green" stroke="green" points="955.65,-80.25 965.65,-76.75 955.65,-73.25 955.65,-80.25"/>
<text text-anchor="middle" x="943.46" y="-80.55" font-family="Times,serif" font-size="14.00">o</text>
</g>
<!-- S11&#45;&gt;S10 -->
<g id="edge14" class="edge">
<title>S11&#45;&gt;S10</title>
<path fill="none" stroke="saddlebrown" d="M969.49,-62.44C960.12,-58.45 949.19,-55.7 938.96,-57.75 935.29,-58.48 931.56,-59.51 927.88,-60.72"/>
<polygon fill="saddlebrown" stroke="saddlebrown" points="926.52,-57.5 918.36,-64.26 928.96,-64.06 926.52,-57.5"/>
<text text-anchor="middle" x="943.46" y="-61.55" font-family="Times,serif" font-size="14.00" fill="saddlebrown">ε</text>
</g>
<!-- S13 -->
<g id="node15" class="node">
<title>S13</title>
<ellipse fill="lightgray" stroke="black" cx="1099.75" cy="-76.75" rx="28.68" ry="28.68"/>
<ellipse fill="none" stroke="black" cx="1099.75" cy="-76.75" rx="32.7" ry="32.7"/>
<text text-anchor="middle" x="1099.75" y="-73.05" font-family="Times,serif" font-size="14.00">S13</text>
</g>
<!-- S11&#45;&gt;S13 -->
<g id="edge15" class="edge">
<title>S11&#45;&gt;S13</title>
<path fill="none" stroke="saddlebrown" d="M1023.21,-76.75C1033.54,-76.75 1045.52,-76.75 1056.84,-76.75"/>
<polygon fill="saddlebrown" stroke="saddlebrown" points="1057,-80.25 1067,-76.75 1057,-73.25 1057,-80.25"/>
<text text-anchor="middle" x="1045.15" y="-80.55" font-family="Times,serif" font-size="14.00" fill="saddlebrown">ε</text>
</g>
<!-- S12&#45;&gt;S10 -->
<g id="edge16" class="edge">
<title>S12&#45;&gt;S10</title>
<path fill="none" stroke="saddlebrown" d="M819.8,-76.75C830.14,-76.75 842.07,-76.75 853.19,-76.75"/>
<polygon fill="saddlebrown" stroke="saddlebrown" points="853.53,-80.25 863.53,-76.75 853.53,-73.25 853.53,-80.25"/>
<text text-anchor="middle" x="841.76" y="-80.55" font-family="Times,serif" font-size="14.00" fill="saddlebrown">ε</text>
</g>
</g>
</svg>
