<?xml version="1.0" encoding="UTF-8" standalone="no"?>
<!DOCTYPE svg PUBLIC "-//W3C//DTD SVG 1.1//EN"
 "http://www.w3.org/Graphics/SVG/1.1/DTD/svg11.dtd">
<!-- Generated by graphviz version 12.2.1 (20241206.2353)
 -->
<!-- Pages: 1 -->
<svg width="348pt" height="139pt"
 viewBox="0.00 0.00 347.74 139.37" xmlns="http://www.w3.org/2000/svg" xmlns:xlink="http://www.w3.org/1999/xlink">
<g id="graph0" class="graph" transform="scale(1 1) rotate(0) translate(4 135.37)">
<polygon fill="white" stroke="none" points="-4,4 -4,-135.37 343.74,-135.37 343.74,4 -4,4"/>
<text text-anchor="middle" x="169.87" y="-7.2" font-family="Times New Roman,serif" font-size="14.00">Regular Expression: a*</text>
<!-- start -->
<g id="node1" class="node">
<title>start</title>
<ellipse fill="black" stroke="black" cx="1.8" cy="-82.14" rx="1.8" ry="1.8"/>
</g>
<!-- S2 -->
<g id="node2" class="node">
<title>S2</title>
<ellipse fill="lightblue" stroke="black" cx="61.24" cy="-82.14" rx="20.64" ry="20.64"/>
<text text-anchor="middle" x="61.24" y="-77.09" font-family="Times New Roman,serif" font-size="14.00">S2</text>
</g>
<!-- start&#45;&gt;S2 -->
<g id="edge1" class="edge">
<title>start&#45;&gt;S2</title>
<path fill="none" stroke="black" d="M3.8,-82.14C7.06,-82.14 17.86,-82.14 29.15,-82.14"/>
<polygon fill="black" stroke="black" points="28.83,-85.64 38.83,-82.14 28.83,-78.64 28.83,-85.64"/>
</g>
<!-- S0 -->
<g id="node3" class="node">
<title>S0</title>
<ellipse fill="none" stroke="black" cx="144.53" cy="-82.14" rx="20.64" ry="20.64"/>
<text text-anchor="middle" x="144.53" y="-77.09" font-family="Times New Roman,serif" font-size="14.00">S0</text>
</g>
<!-- S2&#45;&gt;S0 -->
<g id="edge6" class="edge">
<title>S2&#45;&gt;S0</title>
<path fill="none" stroke="saddlebrown" d="M82.34,-82.14C91.39,-82.14 102.3,-82.14 112.37,-82.14"/>
<polygon fill="saddlebrown" stroke="saddlebrown" points="112.15,-85.64 122.15,-82.14 112.15,-78.64 112.15,-85.64"/>
<text text-anchor="middle" x="102.89" y="-85.34" font-family="Times New Roman,serif" font-size="14.00" fill="saddlebrown">ε</text>
</g>
<!-- S3 -->
<g id="node5" class="node">
<title>S3</title>
<ellipse fill="lightgray" stroke="black" cx="315.1" cy="-49.14" rx="20.64" ry="20.64"/>
<ellipse fill="none" stroke="black" cx="315.1" cy="-49.14" rx="24.64" ry="24.64"/>
<text text-anchor="middle" x="315.1" y="-44.09" font-family="Times New Roman,serif" font-size="14.00">S3</text>
</g>
<!-- S2&#45;&gt;S3 -->
<g id="edge5" class="edge">
<title>S2&#45;&gt;S3</title>
<path fill="none" stroke="saddlebrown" d="M79.28,-71.33C91.25,-64.38 107.91,-55.96 123.89,-52.14 176.76,-39.52 240.27,-41.89 278.88,-45.19"/>
<polygon fill="saddlebrown" stroke="saddlebrown" points="278.47,-48.67 288.76,-46.11 279.13,-41.7 278.47,-48.67"/>
<text text-anchor="middle" x="186.17" y="-46.89" font-family="Times New Roman,serif" font-size="14.00" fill="saddlebrown">ε</text>
</g>
<!-- S1 -->
<g id="node4" class="node">
<title>S1</title>
<ellipse fill="none" stroke="black" cx="227.81" cy="-82.14" rx="20.64" ry="20.64"/>
<text text-anchor="middle" x="227.81" y="-77.09" font-family="Times New Roman,serif" font-size="14.00">S1</text>
</g>
<!-- S0&#45;&gt;S1 -->
<g id="edge2" class="edge">
<title>S0&#45;&gt;S1</title>
<path fill="none" stroke="green" d="M165.62,-82.14C174.68,-82.14 185.58,-82.14 195.66,-82.14"/>
<polygon fill="green" stroke="green" points="195.44,-85.64 205.44,-82.14 195.44,-78.64 195.44,-85.64"/>
<text text-anchor="middle" x="186.17" y="-85.34" font-family="Times New Roman,serif" font-size="14.00">a</text>
</g>
<!-- S1&#45;&gt;S2 -->
<g id="edge3" class="edge">
<title>S1&#45;&gt;S2</title>
<path fill="none" stroke="saddlebrown" d="M209.48,-92.53C203.19,-96.1 195.96,-100 189.17,-103.14 162.59,-115.45 152.71,-117.37 123.89,-112.14 111.68,-109.93 99.19,-104.54 88.67,-98.94"/>
<polygon fill="saddlebrown" stroke="saddlebrown" points="90.64,-96.03 80.22,-94.11 87.17,-102.11 90.64,-96.03"/>
<text text-anchor="middle" x="144.53" y="-118.07" font-family="Times New Roman,serif" font-size="14.00" fill="saddlebrown">ε</text>
</g>
<!-- S1&#45;&gt;S3 -->
<g id="edge4" class="edge">
<title>S1&#45;&gt;S3</title>
<path fill="none" stroke="saddlebrown" d="M247.32,-74.98C257.2,-71.16 269.65,-66.34 281.11,-61.91"/>
<polygon fill="saddlebrown" stroke="saddlebrown" points="282.22,-65.23 290.28,-58.36 279.69,-58.7 282.22,-65.23"/>
<text text-anchor="middle" x="269.46" y="-69.83" font-family="Times New Roman,serif" font-size="14.00" fill="saddlebrown">ε</text>
</g>
</g>
</svg>
