<?xml version="1.0" encoding="UTF-8" standalone="no"?>
<!DOCTYPE svg PUBLIC "-//W3C//DTD SVG 1.1//EN"
 "http://www.w3.org/Graphics/SVG/1.1/DTD/svg11.dtd">
<!-- Generated by graphviz version 12.2.1 (20241206.2353)
 -->
<!-- Pages: 1 -->
<svg width="1057pt" height="133pt"
 viewBox="0.00 0.00 1056.88 132.79" xmlns="http://www.w3.org/2000/svg" xmlns:xlink="http://www.w3.org/1999/xlink">
<g id="graph0" class="graph" transform="scale(1 1) rotate(0) translate(4 128.79)">
<polygon fill="white" stroke="none" points="-4,4 -4,-128.79 1052.88,-128.79 1052.88,4 -4,4"/>
<text text-anchor="middle" x="524.44" y="-7.2" font-family="Times New Roman,serif" font-size="14.00">Regular Expression: [aA]bdo+</text>
<!-- start -->
<g id="node1" class="node">
<title>start</title>
<ellipse fill="black" stroke="black" cx="1.8" cy="-74.14" rx="1.8" ry="1.8"/>
</g>
<!-- S0 -->
<g id="node2" class="node">
<title>S0</title>
<ellipse fill="lightblue" stroke="black" cx="61.24" cy="-74.14" rx="20.64" ry="20.64"/>
<text text-anchor="middle" x="61.24" y="-69.09" font-family="Times New Roman,serif" font-size="14.00">S0</text>
</g>
<!-- start&#45;&gt;S0 -->
<g id="edge1" class="edge">
<title>start&#45;&gt;S0</title>
<path fill="none" stroke="black" d="M3.8,-74.14C7.06,-74.14 17.86,-74.14 29.15,-74.14"/>
<polygon fill="black" stroke="black" points="28.83,-77.64 38.83,-74.14 28.83,-70.64 28.83,-77.64"/>
</g>
<!-- S2 -->
<g id="node4" class="node">
<title>S2</title>
<ellipse fill="none" stroke="black" cx="144.53" cy="-104.14" rx="20.64" ry="20.64"/>
<text text-anchor="middle" x="144.53" y="-99.09" font-family="Times New Roman,serif" font-size="14.00">S2</text>
</g>
<!-- S0&#45;&gt;S2 -->
<g id="edge3" class="edge">
<title>S0&#45;&gt;S2</title>
<path fill="none" stroke="saddlebrown" d="M81.1,-81.1C90.94,-84.74 103.22,-89.27 114.27,-93.34"/>
<polygon fill="saddlebrown" stroke="saddlebrown" points="112.76,-96.52 123.36,-96.7 115.19,-89.95 112.76,-96.52"/>
<text text-anchor="middle" x="102.89" y="-93.24" font-family="Times New Roman,serif" font-size="14.00" fill="saddlebrown">ε</text>
</g>
<!-- S4 -->
<g id="node6" class="node">
<title>S4</title>
<ellipse fill="none" stroke="black" cx="144.53" cy="-45.14" rx="20.64" ry="20.64"/>
<text text-anchor="middle" x="144.53" y="-40.09" font-family="Times New Roman,serif" font-size="14.00">S4</text>
</g>
<!-- S0&#45;&gt;S4 -->
<g id="edge2" class="edge">
<title>S0&#45;&gt;S4</title>
<path fill="none" stroke="saddlebrown" d="M81,-67.4C87.03,-65.24 93.74,-62.84 99.89,-60.64 104.49,-59 109.36,-57.27 114.12,-55.57"/>
<polygon fill="saddlebrown" stroke="saddlebrown" points="115.16,-58.92 123.41,-52.27 112.81,-52.32 115.16,-58.92"/>
<text text-anchor="middle" x="102.89" y="-63.84" font-family="Times New Roman,serif" font-size="14.00" fill="saddlebrown">ε</text>
</g>
<!-- S1 -->
<g id="node3" class="node">
<title>S1</title>
<ellipse fill="none" stroke="black" cx="314.85" cy="-74.14" rx="20.64" ry="20.64"/>
<text text-anchor="middle" x="314.85" y="-69.09" font-family="Times New Roman,serif" font-size="14.00">S1</text>
</g>
<!-- S6 -->
<g id="node8" class="node">
<title>S6</title>
<ellipse fill="none" stroke="black" cx="398.14" cy="-74.14" rx="20.64" ry="20.64"/>
<text text-anchor="middle" x="398.14" y="-69.09" font-family="Times New Roman,serif" font-size="14.00">S6</text>
</g>
<!-- S1&#45;&gt;S6 -->
<g id="edge4" class="edge">
<title>S1&#45;&gt;S6</title>
<path fill="none" stroke="saddlebrown" d="M335.94,-74.14C345,-74.14 355.9,-74.14 365.98,-74.14"/>
<polygon fill="saddlebrown" stroke="saddlebrown" points="365.76,-77.64 375.76,-74.14 365.76,-70.64 365.76,-77.64"/>
<text text-anchor="middle" x="356.49" y="-77.34" font-family="Times New Roman,serif" font-size="14.00" fill="saddlebrown">ε</text>
</g>
<!-- S3 -->
<g id="node5" class="node">
<title>S3</title>
<ellipse fill="none" stroke="black" cx="231.56" cy="-104.14" rx="20.64" ry="20.64"/>
<text text-anchor="middle" x="231.56" y="-99.09" font-family="Times New Roman,serif" font-size="14.00">S3</text>
</g>
<!-- S2&#45;&gt;S3 -->
<g id="edge5" class="edge">
<title>S2&#45;&gt;S3</title>
<path fill="none" stroke="green" d="M165.25,-104.14C175.37,-104.14 187.95,-104.14 199.35,-104.14"/>
<polygon fill="green" stroke="green" points="199.14,-107.64 209.14,-104.14 199.14,-100.64 199.14,-107.64"/>
<text text-anchor="middle" x="188.05" y="-107.34" font-family="Times New Roman,serif" font-size="14.00">a</text>
</g>
<!-- S3&#45;&gt;S1 -->
<g id="edge6" class="edge">
<title>S3&#45;&gt;S1</title>
<path fill="none" stroke="saddlebrown" d="M251.42,-97.18C261.27,-93.55 273.54,-89.02 284.59,-84.94"/>
<polygon fill="saddlebrown" stroke="saddlebrown" points="285.51,-88.33 293.68,-81.59 283.09,-81.77 285.51,-88.33"/>
<text text-anchor="middle" x="273.21" y="-93.24" font-family="Times New Roman,serif" font-size="14.00" fill="saddlebrown">ε</text>
</g>
<!-- S5 -->
<g id="node7" class="node">
<title>S5</title>
<ellipse fill="none" stroke="black" cx="231.56" cy="-45.14" rx="20.64" ry="20.64"/>
<text text-anchor="middle" x="231.56" y="-40.09" font-family="Times New Roman,serif" font-size="14.00">S5</text>
</g>
<!-- S4&#45;&gt;S5 -->
<g id="edge7" class="edge">
<title>S4&#45;&gt;S5</title>
<path fill="none" stroke="green" d="M165.25,-45.14C175.37,-45.14 187.95,-45.14 199.35,-45.14"/>
<polygon fill="green" stroke="green" points="199.14,-48.64 209.14,-45.14 199.14,-41.64 199.14,-48.64"/>
<text text-anchor="middle" x="188.05" y="-48.34" font-family="Times New Roman,serif" font-size="14.00">A</text>
</g>
<!-- S5&#45;&gt;S1 -->
<g id="edge8" class="edge">
<title>S5&#45;&gt;S1</title>
<path fill="none" stroke="saddlebrown" d="M251.26,-51.77C258.98,-54.51 268.03,-57.72 276.21,-60.64 278.9,-61.6 281.69,-62.6 284.49,-63.6"/>
<polygon fill="saddlebrown" stroke="saddlebrown" points="283.07,-66.81 293.67,-66.89 285.43,-60.22 283.07,-66.81"/>
<text text-anchor="middle" x="273.21" y="-63.84" font-family="Times New Roman,serif" font-size="14.00" fill="saddlebrown">ε</text>
</g>
<!-- S7 -->
<g id="node9" class="node">
<title>S7</title>
<ellipse fill="none" stroke="black" cx="482.17" cy="-74.14" rx="20.64" ry="20.64"/>
<text text-anchor="middle" x="482.17" y="-69.09" font-family="Times New Roman,serif" font-size="14.00">S7</text>
</g>
<!-- S6&#45;&gt;S7 -->
<g id="edge9" class="edge">
<title>S6&#45;&gt;S7</title>
<path fill="none" stroke="green" d="M418.99,-74.14C428.3,-74.14 439.6,-74.14 450,-74.14"/>
<polygon fill="green" stroke="green" points="449.7,-77.64 459.7,-74.14 449.7,-70.64 449.7,-77.64"/>
<text text-anchor="middle" x="440.15" y="-77.34" font-family="Times New Roman,serif" font-size="14.00">b</text>
</g>
<!-- S8 -->
<g id="node10" class="node">
<title>S8</title>
<ellipse fill="none" stroke="black" cx="565.46" cy="-74.14" rx="20.64" ry="20.64"/>
<text text-anchor="middle" x="565.46" y="-69.09" font-family="Times New Roman,serif" font-size="14.00">S8</text>
</g>
<!-- S7&#45;&gt;S8 -->
<g id="edge10" class="edge">
<title>S7&#45;&gt;S8</title>
<path fill="none" stroke="saddlebrown" d="M503.27,-74.14C512.32,-74.14 523.22,-74.14 533.3,-74.14"/>
<polygon fill="saddlebrown" stroke="saddlebrown" points="533.08,-77.64 543.08,-74.14 533.08,-70.64 533.08,-77.64"/>
<text text-anchor="middle" x="523.82" y="-77.34" font-family="Times New Roman,serif" font-size="14.00" fill="saddlebrown">ε</text>
</g>
<!-- S9 -->
<g id="node11" class="node">
<title>S9</title>
<ellipse fill="none" stroke="black" cx="649.49" cy="-74.14" rx="20.64" ry="20.64"/>
<text text-anchor="middle" x="649.49" y="-69.09" font-family="Times New Roman,serif" font-size="14.00">S9</text>
</g>
<!-- S8&#45;&gt;S9 -->
<g id="edge11" class="edge">
<title>S8&#45;&gt;S9</title>
<path fill="none" stroke="green" d="M586.32,-74.14C595.62,-74.14 606.92,-74.14 617.32,-74.14"/>
<polygon fill="green" stroke="green" points="617.02,-77.64 627.02,-74.14 617.02,-70.64 617.02,-77.64"/>
<text text-anchor="middle" x="607.48" y="-77.34" font-family="Times New Roman,serif" font-size="14.00">d</text>
</g>
<!-- S12 -->
<g id="node14" class="node">
<title>S12</title>
<ellipse fill="none" stroke="black" cx="737.39" cy="-74.14" rx="25.25" ry="25.25"/>
<text text-anchor="middle" x="737.39" y="-69.09" font-family="Times New Roman,serif" font-size="14.00">S12</text>
</g>
<!-- S9&#45;&gt;S12 -->
<g id="edge12" class="edge">
<title>S9&#45;&gt;S12</title>
<path fill="none" stroke="saddlebrown" d="M670.42,-74.14C679.34,-74.14 690.16,-74.14 700.43,-74.14"/>
<polygon fill="saddlebrown" stroke="saddlebrown" points="700.14,-77.64 710.14,-74.14 700.14,-70.64 700.14,-77.64"/>
<text text-anchor="middle" x="691.14" y="-77.34" font-family="Times New Roman,serif" font-size="14.00" fill="saddlebrown">ε</text>
</g>
<!-- S10 -->
<g id="node12" class="node">
<title>S10</title>
<ellipse fill="none" stroke="black" cx="829.88" cy="-74.14" rx="25.25" ry="25.25"/>
<text text-anchor="middle" x="829.88" y="-69.09" font-family="Times New Roman,serif" font-size="14.00">S10</text>
</g>
<!-- S11 -->
<g id="node13" class="node">
<title>S11</title>
<ellipse fill="none" stroke="black" cx="923.13" cy="-74.14" rx="25.25" ry="25.25"/>
<text text-anchor="middle" x="923.13" y="-69.09" font-family="Times New Roman,serif" font-size="14.00">S11</text>
</g>
<!-- S10&#45;&gt;S11 -->
<g id="edge13" class="edge">
<title>S10&#45;&gt;S11</title>
<path fill="none" stroke="green" d="M855.34,-74.14C864.85,-74.14 875.94,-74.14 886.32,-74.14"/>
<polygon fill="green" stroke="green" points="886.1,-77.64 896.1,-74.14 886.1,-70.64 886.1,-77.64"/>
<text text-anchor="middle" x="876.51" y="-77.34" font-family="Times New Roman,serif" font-size="14.00">o</text>
</g>
<!-- S11&#45;&gt;S10 -->
<g id="edge14" class="edge">
<title>S11&#45;&gt;S10</title>
<path fill="none" stroke="saddlebrown" d="M900.9,-61.54C894.38,-58.31 887.03,-55.29 879.88,-53.64 873.71,-52.22 867.31,-53.04 861.26,-55.01"/>
<polygon fill="saddlebrown" stroke="saddlebrown" points="860.03,-51.72 852.26,-58.92 862.83,-58.14 860.03,-51.72"/>
<text text-anchor="middle" x="876.51" y="-56.84" font-family="Times New Roman,serif" font-size="14.00" fill="saddlebrown">ε</text>
</g>
<!-- S13 -->
<g id="node15" class="node">
<title>S13</title>
<ellipse fill="lightgray" stroke="black" cx="1019.63" cy="-74.14" rx="25.25" ry="25.25"/>
<ellipse fill="none" stroke="black" cx="1019.63" cy="-74.14" rx="29.25" ry="29.25"/>
<text text-anchor="middle" x="1019.63" y="-69.09" font-family="Times New Roman,serif" font-size="14.00">S13</text>
</g>
<!-- S11&#45;&gt;S13 -->
<g id="edge15" class="edge">
<title>S11&#45;&gt;S13</title>
<path fill="none" stroke="saddlebrown" d="M948.47,-74.14C957.69,-74.14 968.44,-74.14 978.72,-74.14"/>
<polygon fill="saddlebrown" stroke="saddlebrown" points="978.5,-77.64 988.5,-74.14 978.5,-70.64 978.5,-77.64"/>
<text text-anchor="middle" x="969.38" y="-77.34" font-family="Times New Roman,serif" font-size="14.00" fill="saddlebrown">ε</text>
</g>
<!-- S12&#45;&gt;S10 -->
<g id="edge16" class="edge">
<title>S12&#45;&gt;S10</title>
<path fill="none" stroke="saddlebrown" d="M763.12,-74.14C772.29,-74.14 782.9,-74.14 792.88,-74.14"/>
<polygon fill="saddlebrown" stroke="saddlebrown" points="792.67,-77.64 802.67,-74.14 792.67,-70.64 792.67,-77.64"/>
<text text-anchor="middle" x="783.64" y="-77.34" font-family="Times New Roman,serif" font-size="14.00" fill="saddlebrown">ε</text>
</g>
</g>
</svg>
