<?xml version="1.0" encoding="UTF-8" standalone="no"?>
<!DOCTYPE svg PUBLIC "-//W3C//DTD SVG 1.1//EN"
 "http://www.w3.org/Graphics/SVG/1.1/DTD/svg11.dtd">
<!-- Generated by graphviz version 12.2.1 (20241206.2353)
 -->
<!-- Pages: 1 -->
<svg width="1052pt" height="214pt"
 viewBox="0.00 0.00 1052.38 214.39" xmlns="http://www.w3.org/2000/svg" xmlns:xlink="http://www.w3.org/1999/xlink">
<g id="graph0" class="graph" transform="scale(1 1) rotate(0) translate(4 210.39)">
<polygon fill="white" stroke="none" points="-4,4 -4,-210.39 1048.38,-210.39 1048.38,4 -4,4"/>
<text text-anchor="middle" x="522.19" y="-7.2" font-family="Times New Roman,serif" font-size="14.00">Regular Expression: [bc]*(cd)+</text>
<!-- S0 -->
<g id="node1" class="node">
<title>S0</title>
<ellipse fill="none" stroke="black" cx="144.53" cy="-102.75" rx="20.64" ry="20.64"/>
<text text-anchor="middle" x="144.53" y="-97.7" font-family="Times New Roman,serif" font-size="14.00">S0</text>
</g>
<!-- S2 -->
<g id="node3" class="node">
<title>S2</title>
<ellipse fill="none" stroke="black" cx="227.81" cy="-185.75" rx="20.64" ry="20.64"/>
<text text-anchor="middle" x="227.81" y="-180.7" font-family="Times New Roman,serif" font-size="14.00">S2</text>
</g>
<!-- S0&#45;&gt;S2 -->
<g id="edge3" class="edge">
<title>S0&#45;&gt;S2</title>
<path fill="none" stroke="saddlebrown" d="M159.69,-117.21C172.08,-129.86 190.3,-148.47 204.63,-163.1"/>
<polygon fill="saddlebrown" stroke="saddlebrown" points="201.99,-165.4 211.49,-170.1 206.99,-160.5 201.99,-165.4"/>
<text text-anchor="middle" x="186.17" y="-149.94" font-family="Times New Roman,serif" font-size="14.00" fill="saddlebrown">ε</text>
</g>
<!-- S4 -->
<g id="node5" class="node">
<title>S4</title>
<ellipse fill="none" stroke="black" cx="227.81" cy="-126.75" rx="20.64" ry="20.64"/>
<text text-anchor="middle" x="227.81" y="-121.7" font-family="Times New Roman,serif" font-size="14.00">S4</text>
</g>
<!-- S0&#45;&gt;S4 -->
<g id="edge2" class="edge">
<title>S0&#45;&gt;S4</title>
<path fill="none" stroke="saddlebrown" d="M164.79,-108.44C174.31,-111.25 186.01,-114.7 196.68,-117.85"/>
<polygon fill="saddlebrown" stroke="saddlebrown" points="195.66,-121.2 206.24,-120.67 197.64,-114.49 195.66,-121.2"/>
<text text-anchor="middle" x="186.17" y="-118.67" font-family="Times New Roman,serif" font-size="14.00" fill="saddlebrown">ε</text>
</g>
<!-- S1 -->
<g id="node2" class="node">
<title>S1</title>
<ellipse fill="none" stroke="black" cx="395.14" cy="-98.75" rx="20.64" ry="20.64"/>
<text text-anchor="middle" x="395.14" y="-93.7" font-family="Times New Roman,serif" font-size="14.00">S1</text>
</g>
<!-- S1&#45;&gt;S0 -->
<g id="edge4" class="edge">
<title>S1&#45;&gt;S0</title>
<path fill="none" stroke="saddlebrown" d="M374.2,-97.76C340,-96.24 267.96,-93.8 207.17,-96.75 197.25,-97.23 186.45,-98.15 176.71,-99.12"/>
<polygon fill="saddlebrown" stroke="saddlebrown" points="176.56,-95.62 166.99,-100.15 177.3,-102.58 176.56,-95.62"/>
<text text-anchor="middle" x="269.83" y="-98.56" font-family="Times New Roman,serif" font-size="14.00" fill="saddlebrown">ε</text>
</g>
<!-- S7 -->
<g id="node8" class="node">
<title>S7</title>
<ellipse fill="none" stroke="black" cx="478.42" cy="-53.75" rx="20.64" ry="20.64"/>
<text text-anchor="middle" x="478.42" y="-48.7" font-family="Times New Roman,serif" font-size="14.00">S7</text>
</g>
<!-- S1&#45;&gt;S7 -->
<g id="edge5" class="edge">
<title>S1&#45;&gt;S7</title>
<path fill="none" stroke="saddlebrown" d="M413.77,-88.98C424.32,-83.15 437.95,-75.6 449.88,-68.99"/>
<polygon fill="saddlebrown" stroke="saddlebrown" points="451.44,-72.13 458.49,-64.23 448.05,-66.01 451.44,-72.13"/>
<text text-anchor="middle" x="436.78" y="-80.8" font-family="Times New Roman,serif" font-size="14.00" fill="saddlebrown">ε</text>
</g>
<!-- S3 -->
<g id="node4" class="node">
<title>S3</title>
<ellipse fill="none" stroke="black" cx="311.85" cy="-185.75" rx="20.64" ry="20.64"/>
<text text-anchor="middle" x="311.85" y="-180.7" font-family="Times New Roman,serif" font-size="14.00">S3</text>
</g>
<!-- S2&#45;&gt;S3 -->
<g id="edge6" class="edge">
<title>S2&#45;&gt;S3</title>
<path fill="none" stroke="green" d="M248.67,-185.75C257.98,-185.75 269.28,-185.75 279.68,-185.75"/>
<polygon fill="green" stroke="green" points="279.38,-189.25 289.38,-185.75 279.38,-182.25 279.38,-189.25"/>
<text text-anchor="middle" x="269.83" y="-188.95" font-family="Times New Roman,serif" font-size="14.00">b</text>
</g>
<!-- S3&#45;&gt;S1 -->
<g id="edge7" class="edge">
<title>S3&#45;&gt;S1</title>
<path fill="none" stroke="saddlebrown" d="M326.64,-170.99C339.25,-157.49 358.11,-137.31 372.69,-121.71"/>
<polygon fill="saddlebrown" stroke="saddlebrown" points="374.98,-124.38 379.25,-114.69 369.86,-119.6 374.98,-124.38"/>
<text text-anchor="middle" x="353.49" y="-148.06" font-family="Times New Roman,serif" font-size="14.00" fill="saddlebrown">ε</text>
</g>
<!-- S5 -->
<g id="node6" class="node">
<title>S5</title>
<ellipse fill="none" stroke="black" cx="311.85" cy="-126.75" rx="20.64" ry="20.64"/>
<text text-anchor="middle" x="311.85" y="-121.7" font-family="Times New Roman,serif" font-size="14.00">S5</text>
</g>
<!-- S4&#45;&gt;S5 -->
<g id="edge8" class="edge">
<title>S4&#45;&gt;S5</title>
<path fill="none" stroke="green" d="M248.67,-126.75C257.98,-126.75 269.28,-126.75 279.68,-126.75"/>
<polygon fill="green" stroke="green" points="279.38,-130.25 289.38,-126.75 279.38,-123.25 279.38,-130.25"/>
<text text-anchor="middle" x="269.83" y="-129.95" font-family="Times New Roman,serif" font-size="14.00">c</text>
</g>
<!-- S5&#45;&gt;S1 -->
<g id="edge9" class="edge">
<title>S5&#45;&gt;S1</title>
<path fill="none" stroke="saddlebrown" d="M331.7,-120.26C341.38,-116.92 353.4,-112.78 364.3,-109.03"/>
<polygon fill="saddlebrown" stroke="saddlebrown" points="365.36,-112.36 373.67,-105.8 363.08,-105.75 365.36,-112.36"/>
<text text-anchor="middle" x="353.49" y="-116.79" font-family="Times New Roman,serif" font-size="14.00" fill="saddlebrown">ε</text>
</g>
<!-- S6 -->
<g id="node7" class="node">
<title>S6</title>
<ellipse fill="lightblue" stroke="black" cx="61.24" cy="-53.75" rx="20.64" ry="20.64"/>
<text text-anchor="middle" x="61.24" y="-48.7" font-family="Times New Roman,serif" font-size="14.00">S6</text>
</g>
<!-- S6&#45;&gt;S0 -->
<g id="edge10" class="edge">
<title>S6&#45;&gt;S0</title>
<path fill="none" stroke="saddlebrown" d="M79.48,-64.14C90.26,-70.64 104.37,-79.14 116.6,-86.51"/>
<polygon fill="saddlebrown" stroke="saddlebrown" points="114.65,-89.43 125.02,-91.59 118.26,-83.43 114.65,-89.43"/>
<text text-anchor="middle" x="102.89" y="-82.92" font-family="Times New Roman,serif" font-size="14.00" fill="saddlebrown">ε</text>
</g>
<!-- S6&#45;&gt;S7 -->
<g id="edge11" class="edge">
<title>S6&#45;&gt;S7</title>
<path fill="none" stroke="saddlebrown" d="M81.41,-47.79C97.76,-43.24 121.95,-37.75 143.53,-37.75 143.53,-37.75 143.53,-37.75 396.14,-37.75 413.33,-37.75 432.19,-41.24 447.41,-44.96"/>
<polygon fill="saddlebrown" stroke="saddlebrown" points="446.23,-48.27 456.79,-47.41 448,-41.49 446.23,-48.27"/>
<text text-anchor="middle" x="269.83" y="-40.95" font-family="Times New Roman,serif" font-size="14.00" fill="saddlebrown">ε</text>
</g>
<!-- S12 -->
<g id="node13" class="node">
<title>S12</title>
<ellipse fill="none" stroke="black" cx="566.31" cy="-53.75" rx="25.25" ry="25.25"/>
<text text-anchor="middle" x="566.31" y="-48.7" font-family="Times New Roman,serif" font-size="14.00">S12</text>
</g>
<!-- S7&#45;&gt;S12 -->
<g id="edge12" class="edge">
<title>S7&#45;&gt;S12</title>
<path fill="none" stroke="saddlebrown" d="M499.34,-53.75C508.27,-53.75 519.09,-53.75 529.36,-53.75"/>
<polygon fill="saddlebrown" stroke="saddlebrown" points="529.07,-57.25 539.07,-53.75 529.07,-50.25 529.07,-57.25"/>
<text text-anchor="middle" x="520.07" y="-56.95" font-family="Times New Roman,serif" font-size="14.00" fill="saddlebrown">ε</text>
</g>
<!-- S8 -->
<g id="node9" class="node">
<title>S8</title>
<ellipse fill="none" stroke="black" cx="654.21" cy="-53.75" rx="20.64" ry="20.64"/>
<text text-anchor="middle" x="654.21" y="-48.7" font-family="Times New Roman,serif" font-size="14.00">S8</text>
</g>
<!-- S9 -->
<g id="node10" class="node">
<title>S9</title>
<ellipse fill="none" stroke="black" cx="737.49" cy="-88.75" rx="20.64" ry="20.64"/>
<text text-anchor="middle" x="737.49" y="-83.7" font-family="Times New Roman,serif" font-size="14.00">S9</text>
</g>
<!-- S8&#45;&gt;S9 -->
<g id="edge13" class="edge">
<title>S8&#45;&gt;S9</title>
<path fill="none" stroke="green" d="M673.65,-61.69C683.73,-66.03 696.44,-71.5 707.79,-76.39"/>
<polygon fill="green" stroke="green" points="706.16,-79.5 716.73,-80.24 708.93,-73.07 706.16,-79.5"/>
<text text-anchor="middle" x="695.85" y="-75.5" font-family="Times New Roman,serif" font-size="14.00">c</text>
</g>
<!-- S10 -->
<g id="node11" class="node">
<title>S10</title>
<ellipse fill="none" stroke="black" cx="825.38" cy="-90.75" rx="25.25" ry="25.25"/>
<text text-anchor="middle" x="825.38" y="-85.7" font-family="Times New Roman,serif" font-size="14.00">S10</text>
</g>
<!-- S9&#45;&gt;S10 -->
<g id="edge14" class="edge">
<title>S9&#45;&gt;S10</title>
<path fill="none" stroke="saddlebrown" d="M758.41,-89.21C767.34,-89.42 778.16,-89.67 788.43,-89.91"/>
<polygon fill="saddlebrown" stroke="saddlebrown" points="788.06,-93.4 798.14,-90.14 788.23,-86.41 788.06,-93.4"/>
<text text-anchor="middle" x="779.14" y="-92.95" font-family="Times New Roman,serif" font-size="14.00" fill="saddlebrown">ε</text>
</g>
<!-- S11 -->
<g id="node12" class="node">
<title>S11</title>
<ellipse fill="none" stroke="black" cx="918.63" cy="-53.75" rx="25.25" ry="25.25"/>
<text text-anchor="middle" x="918.63" y="-48.7" font-family="Times New Roman,serif" font-size="14.00">S11</text>
</g>
<!-- S10&#45;&gt;S11 -->
<g id="edge15" class="edge">
<title>S10&#45;&gt;S11</title>
<path fill="none" stroke="green" d="M848.94,-81.6C859.61,-77.28 872.56,-72.03 884.33,-67.25"/>
<polygon fill="green" stroke="green" points="885.35,-70.62 893.3,-63.62 882.72,-64.13 885.35,-70.62"/>
<text text-anchor="middle" x="872.01" y="-76.56" font-family="Times New Roman,serif" font-size="14.00">d</text>
</g>
<!-- S11&#45;&gt;S8 -->
<g id="edge16" class="edge">
<title>S11&#45;&gt;S8</title>
<path fill="none" stroke="saddlebrown" d="M893.17,-53.75C845.24,-53.75 739.03,-53.75 686.24,-53.75"/>
<polygon fill="saddlebrown" stroke="saddlebrown" points="686.44,-50.25 676.44,-53.75 686.44,-57.25 686.44,-50.25"/>
<text text-anchor="middle" x="779.14" y="-56.95" font-family="Times New Roman,serif" font-size="14.00" fill="saddlebrown">ε</text>
</g>
<!-- S13 -->
<g id="node14" class="node">
<title>S13</title>
<ellipse fill="lightgray" stroke="black" cx="1015.13" cy="-53.75" rx="25.25" ry="25.25"/>
<ellipse fill="none" stroke="black" cx="1015.13" cy="-53.75" rx="29.25" ry="29.25"/>
<text text-anchor="middle" x="1015.13" y="-48.7" font-family="Times New Roman,serif" font-size="14.00">S13</text>
</g>
<!-- S11&#45;&gt;S13 -->
<g id="edge17" class="edge">
<title>S11&#45;&gt;S13</title>
<path fill="none" stroke="saddlebrown" d="M943.97,-53.75C953.19,-53.75 963.94,-53.75 974.22,-53.75"/>
<polygon fill="saddlebrown" stroke="saddlebrown" points="974,-57.25 984,-53.75 974,-50.25 974,-57.25"/>
<text text-anchor="middle" x="964.88" y="-56.95" font-family="Times New Roman,serif" font-size="14.00" fill="saddlebrown">ε</text>
</g>
<!-- S12&#45;&gt;S8 -->
<g id="edge18" class="edge">
<title>S12&#45;&gt;S8</title>
<path fill="none" stroke="saddlebrown" d="M591.7,-53.75C601.01,-53.75 611.76,-53.75 621.64,-53.75"/>
<polygon fill="saddlebrown" stroke="saddlebrown" points="621.6,-57.25 631.6,-53.75 621.6,-50.25 621.6,-57.25"/>
<text text-anchor="middle" x="612.56" y="-56.95" font-family="Times New Roman,serif" font-size="14.00" fill="saddlebrown">ε</text>
</g>
<!-- start -->
<g id="node15" class="node">
<title>start</title>
<ellipse fill="black" stroke="black" cx="1.8" cy="-53.75" rx="1.8" ry="1.8"/>
</g>
<!-- start&#45;&gt;S6 -->
<g id="edge1" class="edge">
<title>start&#45;&gt;S6</title>
<path fill="none" stroke="black" d="M3.8,-53.75C7.06,-53.75 17.86,-53.75 29.15,-53.75"/>
<polygon fill="black" stroke="black" points="28.83,-57.25 38.83,-53.75 28.83,-50.25 28.83,-57.25"/>
</g>
</g>
</svg>
