<?xml version="1.0" encoding="UTF-8" standalone="no"?>
<!DOCTYPE svg PUBLIC "-//W3C//DTD SVG 1.1//EN"
 "http://www.w3.org/Graphics/SVG/1.1/DTD/svg11.dtd">
<!-- Generated by graphviz version 2.43.0 (0)
 -->
<!-- Title: %3 Pages: 1 -->
<svg width="2823pt" height="403pt"
 viewBox="0.00 0.00 2822.87 402.60" xmlns="http://www.w3.org/2000/svg" xmlns:xlink="http://www.w3.org/1999/xlink">
<g id="graph0" class="graph" transform="scale(1 1) rotate(0) translate(4 398.6)">
<title>%3</title>
<polygon fill="white" stroke="transparent" points="-4,4 -4,-398.6 2818.87,-398.6 2818.87,4 -4,4"/>
<text text-anchor="middle" x="1407.43" y="-7.8" font-family="Times,serif" font-size="14.00">Regular Expression: (((((a)*b)*)c)*d)*[a&#45;z][b&#45;d]*[g&#45;h]*</text>
<!-- q0 -->
<g id="node1" class="node">
<title>q0</title>
<ellipse fill="none" stroke="black" cx="22.75" cy="-349.6" rx="23" ry="23"/>
<text text-anchor="middle" x="22.75" y="-345.9" font-family="Times,serif" font-size="14.00">q0</text>
</g>
<!-- q1 -->
<g id="node2" class="node">
<title>q1</title>
<ellipse fill="none" stroke="black" cx="113.24" cy="-319.6" rx="23" ry="23"/>
<text text-anchor="middle" x="113.24" y="-315.9" font-family="Times,serif" font-size="14.00">q1</text>
</g>
<!-- q0&#45;&gt;q1 -->
<g id="edge2" class="edge">
<title>q0&#45;&gt;q1</title>
<path fill="none" stroke="green" d="M44.72,-342.49C55.74,-338.75 69.46,-334.1 81.64,-329.97"/>
<polygon fill="green" stroke="green" points="83.08,-333.18 91.42,-326.66 80.83,-326.55 83.08,-333.18"/>
<text text-anchor="middle" x="68" y="-338.4" font-family="Times,serif" font-size="14.00">a</text>
</g>
<!-- q1&#45;&gt;q0 -->
<g id="edge3" class="edge">
<title>q1&#45;&gt;q0</title>
<path fill="none" stroke="saddlebrown" d="M91.31,-313.35C82.48,-311.75 72.25,-311.29 63.5,-314.6 57.17,-316.98 51.2,-320.89 45.91,-325.24"/>
<polygon fill="saddlebrown" stroke="saddlebrown" points="43.21,-322.96 38.18,-332.29 47.93,-328.13 43.21,-322.96"/>
<text text-anchor="middle" x="68" y="-318.4" font-family="Times,serif" font-size="14.00" fill="saddlebrown">ε</text>
</g>
<!-- q3 -->
<g id="node4" class="node">
<title>q3</title>
<ellipse fill="none" stroke="black" cx="202.74" cy="-319.6" rx="23" ry="23"/>
<text text-anchor="middle" x="202.74" y="-315.9" font-family="Times,serif" font-size="14.00">q3</text>
</g>
<!-- q1&#45;&gt;q3 -->
<g id="edge4" class="edge">
<title>q1&#45;&gt;q3</title>
<path fill="none" stroke="saddlebrown" d="M136.32,-319.6C146.45,-319.6 158.65,-319.6 169.76,-319.6"/>
<polygon fill="saddlebrown" stroke="saddlebrown" points="169.97,-323.1 179.97,-319.6 169.97,-316.1 169.97,-323.1"/>
<text text-anchor="middle" x="157.99" y="-323.4" font-family="Times,serif" font-size="14.00" fill="saddlebrown">ε</text>
</g>
<!-- q2 -->
<g id="node3" class="node">
<title>q2</title>
<ellipse fill="none" stroke="black" cx="1255.54" cy="-322.6" rx="23" ry="23"/>
<text text-anchor="middle" x="1255.54" y="-318.9" font-family="Times,serif" font-size="14.00">q2</text>
</g>
<!-- q2&#45;&gt;q0 -->
<g id="edge5" class="edge">
<title>q2&#45;&gt;q0</title>
<path fill="none" stroke="saddlebrown" d="M1238.94,-338.48C1220.62,-355.34 1188.51,-379.6 1155.34,-379.6 112.24,-379.6 112.24,-379.6 112.24,-379.6 91.5,-379.6 69.39,-372.11 52.46,-364.62"/>
<polygon fill="saddlebrown" stroke="saddlebrown" points="53.68,-361.32 43.14,-360.26 50.72,-367.66 53.68,-361.32"/>
<text text-anchor="middle" x="607.47" y="-383.4" font-family="Times,serif" font-size="14.00" fill="saddlebrown">ε</text>
</g>
<!-- q2&#45;&gt;q3 -->
<g id="edge6" class="edge">
<title>q2&#45;&gt;q3</title>
<path fill="none" stroke="saddlebrown" d="M1233.48,-329.03C1213.55,-334.54 1182.7,-341.6 1155.34,-341.6 291.24,-341.6 291.24,-341.6 291.24,-341.6 271.78,-341.6 250.6,-336.42 233.96,-331.08"/>
<polygon fill="saddlebrown" stroke="saddlebrown" points="234.83,-327.68 224.24,-327.79 232.58,-334.31 234.83,-327.68"/>
<text text-anchor="middle" x="696.97" y="-345.4" font-family="Times,serif" font-size="14.00" fill="saddlebrown">ε</text>
</g>
<!-- q4 -->
<g id="node5" class="node">
<title>q4</title>
<ellipse fill="none" stroke="black" cx="292.24" cy="-290.6" rx="23" ry="23"/>
<text text-anchor="middle" x="292.24" y="-286.9" font-family="Times,serif" font-size="14.00">q4</text>
</g>
<!-- q3&#45;&gt;q4 -->
<g id="edge7" class="edge">
<title>q3&#45;&gt;q4</title>
<path fill="none" stroke="saddlebrown" d="M224.48,-312.72C235.29,-309.14 248.73,-304.68 260.72,-300.71"/>
<polygon fill="saddlebrown" stroke="saddlebrown" points="261.96,-303.99 270.35,-297.52 259.75,-297.35 261.96,-303.99"/>
<text text-anchor="middle" x="247.49" y="-309.4" font-family="Times,serif" font-size="14.00" fill="saddlebrown">ε</text>
</g>
<!-- q5 -->
<g id="node6" class="node">
<title>q5</title>
<ellipse fill="none" stroke="black" cx="383.73" cy="-290.6" rx="23" ry="23"/>
<text text-anchor="middle" x="383.73" y="-286.9" font-family="Times,serif" font-size="14.00">q5</text>
</g>
<!-- q4&#45;&gt;q5 -->
<g id="edge8" class="edge">
<title>q4&#45;&gt;q5</title>
<path fill="none" stroke="green" d="M315.36,-290.6C325.98,-290.6 338.91,-290.6 350.59,-290.6"/>
<polygon fill="green" stroke="green" points="350.86,-294.1 360.86,-290.6 350.86,-287.1 350.86,-294.1"/>
<text text-anchor="middle" x="337.98" y="-294.4" font-family="Times,serif" font-size="14.00">b</text>
</g>
<!-- q5&#45;&gt;q2 -->
<g id="edge10" class="edge">
<title>q5&#45;&gt;q2</title>
<path fill="none" stroke="saddlebrown" d="M406.17,-295.59C423.81,-299.25 449.5,-303.6 472.23,-303.6 472.23,-303.6 472.23,-303.6 1155.34,-303.6 1178.53,-303.6 1204.23,-308.67 1223.66,-313.57"/>
<polygon fill="saddlebrown" stroke="saddlebrown" points="1222.92,-316.99 1233.48,-316.16 1224.71,-310.22 1222.92,-316.99"/>
<text text-anchor="middle" x="798.16" y="-307.4" font-family="Times,serif" font-size="14.00" fill="saddlebrown">ε</text>
</g>
<!-- q7 -->
<g id="node8" class="node">
<title>q7</title>
<ellipse fill="none" stroke="black" cx="473.23" cy="-252.6" rx="23" ry="23"/>
<text text-anchor="middle" x="473.23" y="-248.9" font-family="Times,serif" font-size="14.00">q7</text>
</g>
<!-- q5&#45;&gt;q7 -->
<g id="edge9" class="edge">
<title>q5&#45;&gt;q7</title>
<path fill="none" stroke="saddlebrown" d="M405.03,-281.78C416.18,-276.94 430.22,-270.84 442.58,-265.47"/>
<polygon fill="saddlebrown" stroke="saddlebrown" points="444.27,-268.56 452.04,-261.36 441.48,-262.14 444.27,-268.56"/>
<text text-anchor="middle" x="428.48" y="-277.4" font-family="Times,serif" font-size="14.00" fill="saddlebrown">ε</text>
</g>
<!-- q6 -->
<g id="node7" class="node">
<title>q6</title>
<ellipse fill="none" stroke="black" cx="1154.34" cy="-240.6" rx="23" ry="23"/>
<text text-anchor="middle" x="1154.34" y="-236.9" font-family="Times,serif" font-size="14.00">q6</text>
</g>
<!-- q6&#45;&gt;q2 -->
<g id="edge12" class="edge">
<title>q6&#45;&gt;q2</title>
<path fill="none" stroke="saddlebrown" d="M1174.73,-251.32C1185.28,-257.54 1198.3,-265.85 1208.94,-274.6 1217.47,-281.61 1226.01,-290.11 1233.36,-298"/>
<polygon fill="saddlebrown" stroke="saddlebrown" points="1230.95,-300.55 1240.26,-305.61 1236.13,-295.85 1230.95,-300.55"/>
<text text-anchor="middle" x="1204.94" y="-278.4" font-family="Times,serif" font-size="14.00" fill="saddlebrown">ε</text>
</g>
<!-- q6&#45;&gt;q7 -->
<g id="edge11" class="edge">
<title>q6&#45;&gt;q7</title>
<path fill="none" stroke="saddlebrown" d="M1132.82,-248.92C1113.02,-256.19 1082.03,-265.6 1054.15,-265.6 561.72,-265.6 561.72,-265.6 561.72,-265.6 543.08,-265.6 522.44,-262.67 505.89,-259.6"/>
<polygon fill="saddlebrown" stroke="saddlebrown" points="506.16,-256.08 495.67,-257.59 504.81,-262.95 506.16,-256.08"/>
<text text-anchor="middle" x="798.16" y="-269.4" font-family="Times,serif" font-size="14.00" fill="saddlebrown">ε</text>
</g>
<!-- q8 -->
<g id="node9" class="node">
<title>q8</title>
<ellipse fill="none" stroke="black" cx="562.72" cy="-214.6" rx="23" ry="23"/>
<text text-anchor="middle" x="562.72" y="-210.9" font-family="Times,serif" font-size="14.00">q8</text>
</g>
<!-- q7&#45;&gt;q8 -->
<g id="edge13" class="edge">
<title>q7&#45;&gt;q8</title>
<path fill="none" stroke="saddlebrown" d="M494.52,-243.78C505.67,-238.94 519.72,-232.84 532.08,-227.47"/>
<polygon fill="saddlebrown" stroke="saddlebrown" points="533.76,-230.56 541.54,-223.36 530.97,-224.14 533.76,-230.56"/>
<text text-anchor="middle" x="517.98" y="-239.4" font-family="Times,serif" font-size="14.00" fill="saddlebrown">ε</text>
</g>
<!-- q9 -->
<g id="node10" class="node">
<title>q9</title>
<ellipse fill="none" stroke="black" cx="652.22" cy="-214.6" rx="23" ry="23"/>
<text text-anchor="middle" x="652.22" y="-210.9" font-family="Times,serif" font-size="14.00">q9</text>
</g>
<!-- q8&#45;&gt;q9 -->
<g id="edge14" class="edge">
<title>q8&#45;&gt;q9</title>
<path fill="none" stroke="green" d="M585.8,-214.6C595.93,-214.6 608.13,-214.6 619.24,-214.6"/>
<polygon fill="green" stroke="green" points="619.45,-218.1 629.45,-214.6 619.45,-211.1 619.45,-218.1"/>
<text text-anchor="middle" x="607.47" y="-218.4" font-family="Times,serif" font-size="14.00">c</text>
</g>
<!-- q9&#45;&gt;q6 -->
<g id="edge15" class="edge">
<title>q9&#45;&gt;q6</title>
<path fill="none" stroke="saddlebrown" d="M674.61,-219.29C693.45,-223.01 721.69,-227.6 746.57,-227.6 746.57,-227.6 746.57,-227.6 1054.15,-227.6 1076.86,-227.6 1102.26,-230.99 1121.67,-234.31"/>
<polygon fill="saddlebrown" stroke="saddlebrown" points="1121.32,-237.8 1131.78,-236.12 1122.55,-230.91 1121.32,-237.8"/>
<text text-anchor="middle" x="900.36" y="-231.4" font-family="Times,serif" font-size="14.00" fill="saddlebrown">ε</text>
</g>
<!-- q11 -->
<g id="node12" class="node">
<title>q11</title>
<ellipse fill="none" stroke="black" cx="747.57" cy="-170.6" rx="28.7" ry="28.7"/>
<text text-anchor="middle" x="747.57" y="-166.9" font-family="Times,serif" font-size="14.00">q11</text>
</g>
<!-- q9&#45;&gt;q11 -->
<g id="edge16" class="edge">
<title>q9&#45;&gt;q11</title>
<path fill="none" stroke="saddlebrown" d="M673.02,-205.27C684.38,-199.91 698.98,-193.03 712.17,-186.81"/>
<polygon fill="saddlebrown" stroke="saddlebrown" points="713.91,-189.86 721.46,-182.43 710.92,-183.53 713.91,-189.86"/>
<text text-anchor="middle" x="696.97" y="-199.4" font-family="Times,serif" font-size="14.00" fill="saddlebrown">ε</text>
</g>
<!-- q10 -->
<g id="node11" class="node">
<title>q10</title>
<ellipse fill="none" stroke="black" cx="1053.15" cy="-164.6" rx="28.7" ry="28.7"/>
<text text-anchor="middle" x="1053.15" y="-160.9" font-family="Times,serif" font-size="14.00">q10</text>
</g>
<!-- q10&#45;&gt;q6 -->
<g id="edge17" class="edge">
<title>q10&#45;&gt;q6</title>
<path fill="none" stroke="saddlebrown" d="M1078.25,-178.61C1087.7,-184.43 1098.48,-191.48 1107.75,-198.6 1115.23,-204.35 1122.94,-211.08 1129.84,-217.46"/>
<polygon fill="saddlebrown" stroke="saddlebrown" points="1127.83,-220.38 1137.5,-224.69 1132.64,-215.29 1127.83,-220.38"/>
<text text-anchor="middle" x="1103.75" y="-202.4" font-family="Times,serif" font-size="14.00" fill="saddlebrown">ε</text>
</g>
<!-- q10&#45;&gt;q11 -->
<g id="edge18" class="edge">
<title>q10&#45;&gt;q11</title>
<path fill="none" stroke="saddlebrown" d="M1024.64,-167.42C1011.34,-168.65 995.13,-169.96 980.55,-170.6 901.34,-174.08 881.45,-172.15 802.16,-172.6 798.61,-172.62 797.72,-172.68 794.16,-172.6 791.76,-172.54 789.28,-172.48 786.78,-172.4"/>
<polygon fill="saddlebrown" stroke="saddlebrown" points="786.65,-168.89 776.53,-172.02 786.4,-175.88 786.65,-168.89"/>
<text text-anchor="middle" x="900.36" y="-177.4" font-family="Times,serif" font-size="14.00" fill="saddlebrown">ε</text>
</g>
<!-- q12 -->
<g id="node13" class="node">
<title>q12</title>
<ellipse fill="none" stroke="black" cx="848.76" cy="-132.6" rx="28.7" ry="28.7"/>
<text text-anchor="middle" x="848.76" y="-128.9" font-family="Times,serif" font-size="14.00">q12</text>
</g>
<!-- q11&#45;&gt;q12 -->
<g id="edge19" class="edge">
<title>q11&#45;&gt;q12</title>
<path fill="none" stroke="saddlebrown" d="M774.63,-160.61C786.13,-156.21 799.84,-150.96 812.25,-146.2"/>
<polygon fill="saddlebrown" stroke="saddlebrown" points="813.79,-149.36 821.87,-142.51 811.28,-142.82 813.79,-149.36"/>
<text text-anchor="middle" x="798.16" y="-157.4" font-family="Times,serif" font-size="14.00" fill="saddlebrown">ε</text>
</g>
<!-- q13 -->
<g id="node14" class="node">
<title>q13</title>
<ellipse fill="none" stroke="black" cx="951.96" cy="-132.6" rx="28.7" ry="28.7"/>
<text text-anchor="middle" x="951.96" y="-128.9" font-family="Times,serif" font-size="14.00">q13</text>
</g>
<!-- q12&#45;&gt;q13 -->
<g id="edge20" class="edge">
<title>q12&#45;&gt;q13</title>
<path fill="none" stroke="green" d="M877.41,-132.6C888.46,-132.6 901.35,-132.6 913.23,-132.6"/>
<polygon fill="green" stroke="green" points="913.34,-136.1 923.34,-132.6 913.34,-129.1 913.34,-136.1"/>
<text text-anchor="middle" x="900.36" y="-136.4" font-family="Times,serif" font-size="14.00">d</text>
</g>
<!-- q13&#45;&gt;q10 -->
<g id="edge21" class="edge">
<title>q13&#45;&gt;q10</title>
<path fill="none" stroke="saddlebrown" d="M979.28,-141.09C990.49,-144.71 1003.75,-148.98 1015.87,-152.89"/>
<polygon fill="saddlebrown" stroke="saddlebrown" points="1015.11,-156.33 1025.7,-156.07 1017.26,-149.67 1015.11,-156.33"/>
<text text-anchor="middle" x="1002.55" y="-153.4" font-family="Times,serif" font-size="14.00" fill="saddlebrown">ε</text>
</g>
<!-- q15 -->
<g id="node16" class="node">
<title>q15</title>
<ellipse fill="none" stroke="black" cx="1053.15" cy="-64.6" rx="28.7" ry="28.7"/>
<text text-anchor="middle" x="1053.15" y="-60.9" font-family="Times,serif" font-size="14.00">q15</text>
</g>
<!-- q13&#45;&gt;q15 -->
<g id="edge22" class="edge">
<title>q13&#45;&gt;q15</title>
<path fill="none" stroke="saddlebrown" d="M970.24,-110.37C978.1,-101.41 988.01,-91.57 998.55,-84.6 1003.88,-81.08 1009.91,-78.06 1015.96,-75.52"/>
<polygon fill="saddlebrown" stroke="saddlebrown" points="1017.29,-78.76 1025.38,-71.92 1014.79,-72.22 1017.29,-78.76"/>
<text text-anchor="middle" x="1002.55" y="-88.4" font-family="Times,serif" font-size="14.00" fill="saddlebrown">ε</text>
</g>
<!-- q14 -->
<g id="node15" class="node">
<title>q14</title>
<ellipse fill="none" stroke="black" cx="951.96" cy="-51.6" rx="28.7" ry="28.7"/>
<text text-anchor="middle" x="951.96" y="-47.9" font-family="Times,serif" font-size="14.00">q14</text>
</g>
<!-- q14&#45;&gt;q10 -->
<g id="edge23" class="edge">
<title>q14&#45;&gt;q10</title>
<path fill="none" stroke="saddlebrown" d="M971.38,-72.59C986.94,-90.31 1009.39,-115.88 1026.67,-135.57"/>
<polygon fill="saddlebrown" stroke="saddlebrown" points="1024.26,-138.13 1033.49,-143.34 1029.52,-133.51 1024.26,-138.13"/>
<text text-anchor="middle" x="1002.55" y="-115.4" font-family="Times,serif" font-size="14.00" fill="saddlebrown">ε</text>
</g>
<!-- q14&#45;&gt;q15 -->
<g id="edge24" class="edge">
<title>q14&#45;&gt;q15</title>
<path fill="none" stroke="saddlebrown" d="M980.09,-46.12C988.61,-45.19 998.01,-44.97 1006.55,-46.6 1010.19,-47.29 1013.92,-48.27 1017.59,-49.42"/>
<polygon fill="saddlebrown" stroke="saddlebrown" points="1016.5,-52.74 1027.09,-52.76 1018.82,-46.14 1016.5,-52.74"/>
<text text-anchor="middle" x="1002.55" y="-50.4" font-family="Times,serif" font-size="14.00" fill="saddlebrown">ε</text>
</g>
<!-- q16 -->
<g id="node17" class="node">
<title>q16</title>
<ellipse fill="none" stroke="black" cx="1154.34" cy="-64.6" rx="28.7" ry="28.7"/>
<text text-anchor="middle" x="1154.34" y="-60.9" font-family="Times,serif" font-size="14.00">q16</text>
</g>
<!-- q15&#45;&gt;q16 -->
<g id="edge25" class="edge">
<title>q15&#45;&gt;q16</title>
<path fill="none" stroke="saddlebrown" d="M1081.78,-64.6C1092.12,-64.6 1104.06,-64.6 1115.18,-64.6"/>
<polygon fill="saddlebrown" stroke="saddlebrown" points="1115.52,-68.1 1125.52,-64.6 1115.52,-61.1 1115.52,-68.1"/>
<text text-anchor="middle" x="1103.75" y="-68.4" font-family="Times,serif" font-size="14.00" fill="saddlebrown">ε</text>
</g>
<!-- q18 -->
<g id="node19" class="node">
<title>q18</title>
<ellipse fill="none" stroke="black" cx="1255.54" cy="-64.6" rx="28.7" ry="28.7"/>
<text text-anchor="middle" x="1255.54" y="-60.9" font-family="Times,serif" font-size="14.00">q18</text>
</g>
<!-- q16&#45;&gt;q18 -->
<g id="edge26" class="edge">
<title>q16&#45;&gt;q18</title>
<path fill="none" stroke="saddlebrown" d="M1182.98,-64.6C1193.32,-64.6 1205.25,-64.6 1216.37,-64.6"/>
<polygon fill="saddlebrown" stroke="saddlebrown" points="1216.71,-68.1 1226.71,-64.6 1216.71,-61.1 1216.71,-68.1"/>
<text text-anchor="middle" x="1204.94" y="-68.4" font-family="Times,serif" font-size="14.00" fill="saddlebrown">ε</text>
</g>
<!-- q17 -->
<g id="node18" class="node">
<title>q17</title>
<ellipse fill="none" stroke="black" cx="1491.93" cy="-64.6" rx="28.7" ry="28.7"/>
<text text-anchor="middle" x="1491.93" y="-60.9" font-family="Times,serif" font-size="14.00">q17</text>
</g>
<!-- q24 -->
<g id="node25" class="node">
<title>q24</title>
<ellipse fill="none" stroke="black" cx="1593.12" cy="-64.6" rx="28.7" ry="28.7"/>
<text text-anchor="middle" x="1593.12" y="-60.9" font-family="Times,serif" font-size="14.00">q24</text>
</g>
<!-- q17&#45;&gt;q24 -->
<g id="edge27" class="edge">
<title>q17&#45;&gt;q24</title>
<path fill="none" stroke="saddlebrown" d="M1520.56,-64.6C1530.9,-64.6 1542.84,-64.6 1553.96,-64.6"/>
<polygon fill="saddlebrown" stroke="saddlebrown" points="1554.3,-68.1 1564.3,-64.6 1554.3,-61.1 1554.3,-68.1"/>
<text text-anchor="middle" x="1542.53" y="-68.4" font-family="Times,serif" font-size="14.00" fill="saddlebrown">ε</text>
</g>
<!-- q19 -->
<g id="node20" class="node">
<title>q19</title>
<ellipse fill="none" stroke="black" cx="1390.73" cy="-64.6" rx="28.7" ry="28.7"/>
<text text-anchor="middle" x="1390.73" y="-60.9" font-family="Times,serif" font-size="14.00">q19</text>
</g>
<!-- q18&#45;&gt;q19 -->
<g id="edge28" class="edge">
<title>q18&#45;&gt;q19</title>
<path fill="none" stroke="green" d="M1284.14,-64.6C1303.65,-64.6 1330.06,-64.6 1351.59,-64.6"/>
<polygon fill="green" stroke="green" points="1351.71,-68.1 1361.71,-64.6 1351.71,-61.1 1351.71,-68.1"/>
<text text-anchor="middle" x="1323.14" y="-68.4" font-family="Times,serif" font-size="14.00">a &#45;&gt; z</text>
</g>
<!-- q19&#45;&gt;q17 -->
<g id="edge29" class="edge">
<title>q19&#45;&gt;q17</title>
<path fill="none" stroke="saddlebrown" d="M1419.37,-64.6C1429.71,-64.6 1441.64,-64.6 1452.76,-64.6"/>
<polygon fill="saddlebrown" stroke="saddlebrown" points="1453.1,-68.1 1463.1,-64.6 1453.1,-61.1 1453.1,-68.1"/>
<text text-anchor="middle" x="1441.33" y="-68.4" font-family="Times,serif" font-size="14.00" fill="saddlebrown">ε</text>
</g>
<!-- q20 -->
<g id="node21" class="node">
<title>q20</title>
<ellipse fill="none" stroke="black" cx="1694.32" cy="-105.6" rx="28.7" ry="28.7"/>
<text text-anchor="middle" x="1694.32" y="-101.9" font-family="Times,serif" font-size="14.00">q20</text>
</g>
<!-- q22 -->
<g id="node23" class="node">
<title>q22</title>
<ellipse fill="none" stroke="black" cx="1795.51" cy="-105.6" rx="28.7" ry="28.7"/>
<text text-anchor="middle" x="1795.51" y="-101.9" font-family="Times,serif" font-size="14.00">q22</text>
</g>
<!-- q20&#45;&gt;q22 -->
<g id="edge30" class="edge">
<title>q20&#45;&gt;q22</title>
<path fill="none" stroke="saddlebrown" d="M1722.95,-105.6C1733.29,-105.6 1745.23,-105.6 1756.35,-105.6"/>
<polygon fill="saddlebrown" stroke="saddlebrown" points="1756.69,-109.1 1766.69,-105.6 1756.69,-102.1 1756.69,-109.1"/>
<text text-anchor="middle" x="1744.92" y="-109.4" font-family="Times,serif" font-size="14.00" fill="saddlebrown">ε</text>
</g>
<!-- q21 -->
<g id="node22" class="node">
<title>q21</title>
<ellipse fill="none" stroke="black" cx="2033.9" cy="-105.6" rx="28.7" ry="28.7"/>
<text text-anchor="middle" x="2033.9" y="-101.9" font-family="Times,serif" font-size="14.00">q21</text>
</g>
<!-- q21&#45;&gt;q20 -->
<g id="edge32" class="edge">
<title>q21&#45;&gt;q20</title>
<path fill="none" stroke="saddlebrown" d="M2009.9,-121.53C1996.41,-129.89 1978.65,-139.28 1961.31,-143.6 1877.47,-164.47 1850.75,-164.47 1766.92,-143.6 1753.1,-140.16 1739.01,-133.5 1727.04,-126.7"/>
<polygon fill="saddlebrown" stroke="saddlebrown" points="1728.71,-123.63 1718.33,-121.53 1725.14,-129.65 1728.71,-123.63"/>
<text text-anchor="middle" x="1864.11" y="-163.4" font-family="Times,serif" font-size="14.00" fill="saddlebrown">ε</text>
</g>
<!-- q25 -->
<g id="node26" class="node">
<title>q25</title>
<ellipse fill="none" stroke="black" cx="2135.1" cy="-64.6" rx="28.7" ry="28.7"/>
<text text-anchor="middle" x="2135.1" y="-60.9" font-family="Times,serif" font-size="14.00">q25</text>
</g>
<!-- q21&#45;&gt;q25 -->
<g id="edge31" class="edge">
<title>q21&#45;&gt;q25</title>
<path fill="none" stroke="saddlebrown" d="M2060.71,-94.93C2072.42,-90.09 2086.45,-84.29 2099.09,-79.07"/>
<polygon fill="saddlebrown" stroke="saddlebrown" points="2100.52,-82.26 2108.43,-75.21 2097.85,-75.79 2100.52,-82.26"/>
<text text-anchor="middle" x="2084.5" y="-90.4" font-family="Times,serif" font-size="14.00" fill="saddlebrown">ε</text>
</g>
<!-- q23 -->
<g id="node24" class="node">
<title>q23</title>
<ellipse fill="none" stroke="black" cx="1932.71" cy="-105.6" rx="28.7" ry="28.7"/>
<text text-anchor="middle" x="1932.71" y="-101.9" font-family="Times,serif" font-size="14.00">q23</text>
</g>
<!-- q22&#45;&gt;q23 -->
<g id="edge33" class="edge">
<title>q22&#45;&gt;q23</title>
<path fill="none" stroke="green" d="M1824.2,-105.6C1844.34,-105.6 1871.84,-105.6 1893.99,-105.6"/>
<polygon fill="green" stroke="green" points="1894.06,-109.1 1904.06,-105.6 1894.06,-102.1 1894.06,-109.1"/>
<text text-anchor="middle" x="1864.11" y="-109.4" font-family="Times,serif" font-size="14.00">b &#45;&gt; d</text>
</g>
<!-- q23&#45;&gt;q21 -->
<g id="edge34" class="edge">
<title>q23&#45;&gt;q21</title>
<path fill="none" stroke="saddlebrown" d="M1961.34,-105.6C1971.68,-105.6 1983.62,-105.6 1994.74,-105.6"/>
<polygon fill="saddlebrown" stroke="saddlebrown" points="1995.08,-109.1 2005.08,-105.6 1995.08,-102.1 1995.08,-109.1"/>
<text text-anchor="middle" x="1983.31" y="-109.4" font-family="Times,serif" font-size="14.00" fill="saddlebrown">ε</text>
</g>
<!-- q24&#45;&gt;q20 -->
<g id="edge36" class="edge">
<title>q24&#45;&gt;q20</title>
<path fill="none" stroke="saddlebrown" d="M1619.93,-75.26C1631.64,-80.1 1645.67,-85.9 1658.31,-91.13"/>
<polygon fill="saddlebrown" stroke="saddlebrown" points="1657.07,-94.4 1667.65,-94.99 1659.74,-87.93 1657.07,-94.4"/>
<text text-anchor="middle" x="1643.72" y="-90.4" font-family="Times,serif" font-size="14.00" fill="saddlebrown">ε</text>
</g>
<!-- q24&#45;&gt;q25 -->
<g id="edge35" class="edge">
<title>q24&#45;&gt;q25</title>
<path fill="none" stroke="saddlebrown" d="M1621.3,-57.81C1641.13,-53.45 1668.72,-48.6 1693.32,-48.6 1693.32,-48.6 1693.32,-48.6 2034.9,-48.6 2055.66,-48.6 2078.54,-52.05 2097.1,-55.75"/>
<polygon fill="saddlebrown" stroke="saddlebrown" points="2096.42,-59.18 2106.92,-57.81 2097.85,-52.33 2096.42,-59.18"/>
<text text-anchor="middle" x="1864.11" y="-52.4" font-family="Times,serif" font-size="14.00" fill="saddlebrown">ε</text>
</g>
<!-- q30 -->
<g id="node31" class="node">
<title>q30</title>
<ellipse fill="none" stroke="black" cx="2236.29" cy="-64.6" rx="28.7" ry="28.7"/>
<text text-anchor="middle" x="2236.29" y="-60.9" font-family="Times,serif" font-size="14.00">q30</text>
</g>
<!-- q25&#45;&gt;q30 -->
<g id="edge37" class="edge">
<title>q25&#45;&gt;q30</title>
<path fill="none" stroke="saddlebrown" d="M2163.73,-64.6C2174.07,-64.6 2186.01,-64.6 2197.13,-64.6"/>
<polygon fill="saddlebrown" stroke="saddlebrown" points="2197.47,-68.1 2207.47,-64.6 2197.47,-61.1 2197.47,-68.1"/>
<text text-anchor="middle" x="2185.7" y="-68.4" font-family="Times,serif" font-size="14.00" fill="saddlebrown">ε</text>
</g>
<!-- q26 -->
<g id="node27" class="node">
<title>q26</title>
<ellipse fill="none" stroke="black" cx="2337.49" cy="-105.6" rx="28.7" ry="28.7"/>
<text text-anchor="middle" x="2337.49" y="-101.9" font-family="Times,serif" font-size="14.00">q26</text>
</g>
<!-- q28 -->
<g id="node29" class="node">
<title>q28</title>
<ellipse fill="none" stroke="black" cx="2438.68" cy="-105.6" rx="28.7" ry="28.7"/>
<text text-anchor="middle" x="2438.68" y="-101.9" font-family="Times,serif" font-size="14.00">q28</text>
</g>
<!-- q26&#45;&gt;q28 -->
<g id="edge38" class="edge">
<title>q26&#45;&gt;q28</title>
<path fill="none" stroke="saddlebrown" d="M2366.12,-105.6C2376.46,-105.6 2388.39,-105.6 2399.52,-105.6"/>
<polygon fill="saddlebrown" stroke="saddlebrown" points="2399.86,-109.1 2409.86,-105.6 2399.86,-102.1 2399.86,-109.1"/>
<text text-anchor="middle" x="2388.09" y="-109.4" font-family="Times,serif" font-size="14.00" fill="saddlebrown">ε</text>
</g>
<!-- q27 -->
<g id="node28" class="node">
<title>q27</title>
<ellipse fill="none" stroke="black" cx="2677.07" cy="-105.6" rx="28.7" ry="28.7"/>
<text text-anchor="middle" x="2677.07" y="-101.9" font-family="Times,serif" font-size="14.00">q27</text>
</g>
<!-- q27&#45;&gt;q26 -->
<g id="edge39" class="edge">
<title>q27&#45;&gt;q26</title>
<path fill="none" stroke="saddlebrown" d="M2653.07,-121.53C2639.58,-129.89 2621.82,-139.28 2604.48,-143.6 2520.64,-164.47 2493.92,-164.47 2410.09,-143.6 2396.27,-140.16 2382.18,-133.5 2370.21,-126.7"/>
<polygon fill="saddlebrown" stroke="saddlebrown" points="2371.88,-123.63 2361.5,-121.53 2368.31,-129.65 2371.88,-123.63"/>
<text text-anchor="middle" x="2507.28" y="-163.4" font-family="Times,serif" font-size="14.00" fill="saddlebrown">ε</text>
</g>
<!-- q31 -->
<g id="node32" class="node">
<title>q31</title>
<ellipse fill="none" stroke="black" cx="2782.27" cy="-64.6" rx="28.68" ry="28.68"/>
<ellipse fill="none" stroke="black" cx="2782.27" cy="-64.6" rx="32.7" ry="32.7"/>
<text text-anchor="middle" x="2782.27" y="-60.9" font-family="Times,serif" font-size="14.00">q31</text>
</g>
<!-- q27&#45;&gt;q31 -->
<g id="edge40" class="edge">
<title>q27&#45;&gt;q31</title>
<path fill="none" stroke="saddlebrown" d="M2703.85,-95.36C2715.46,-90.75 2729.41,-85.2 2742.26,-80.1"/>
<polygon fill="saddlebrown" stroke="saddlebrown" points="2743.81,-83.25 2751.81,-76.3 2741.23,-76.74 2743.81,-83.25"/>
<text text-anchor="middle" x="2727.67" y="-90.4" font-family="Times,serif" font-size="14.00" fill="saddlebrown">ε</text>
</g>
<!-- q29 -->
<g id="node30" class="node">
<title>q29</title>
<ellipse fill="none" stroke="black" cx="2575.88" cy="-105.6" rx="28.7" ry="28.7"/>
<text text-anchor="middle" x="2575.88" y="-101.9" font-family="Times,serif" font-size="14.00">q29</text>
</g>
<!-- q28&#45;&gt;q29 -->
<g id="edge41" class="edge">
<title>q28&#45;&gt;q29</title>
<path fill="none" stroke="green" d="M2467.37,-105.6C2487.51,-105.6 2515.01,-105.6 2537.16,-105.6"/>
<polygon fill="green" stroke="green" points="2537.23,-109.1 2547.23,-105.6 2537.23,-102.1 2537.23,-109.1"/>
<text text-anchor="middle" x="2507.28" y="-109.4" font-family="Times,serif" font-size="14.00">g &#45;&gt; h</text>
</g>
<!-- q29&#45;&gt;q27 -->
<g id="edge42" class="edge">
<title>q29&#45;&gt;q27</title>
<path fill="none" stroke="saddlebrown" d="M2604.51,-105.6C2614.85,-105.6 2626.78,-105.6 2637.91,-105.6"/>
<polygon fill="saddlebrown" stroke="saddlebrown" points="2638.25,-109.1 2648.25,-105.6 2638.25,-102.1 2638.25,-109.1"/>
<text text-anchor="middle" x="2626.48" y="-109.4" font-family="Times,serif" font-size="14.00" fill="saddlebrown">ε</text>
</g>
<!-- q30&#45;&gt;q26 -->
<g id="edge43" class="edge">
<title>q30&#45;&gt;q26</title>
<path fill="none" stroke="saddlebrown" d="M2263.1,-75.26C2274.81,-80.1 2288.84,-85.9 2301.48,-91.13"/>
<polygon fill="saddlebrown" stroke="saddlebrown" points="2300.24,-94.4 2310.81,-94.99 2302.91,-87.93 2300.24,-94.4"/>
<text text-anchor="middle" x="2286.89" y="-90.4" font-family="Times,serif" font-size="14.00" fill="saddlebrown">ε</text>
</g>
<!-- q30&#45;&gt;q31 -->
<g id="edge44" class="edge">
<title>q30&#45;&gt;q31</title>
<path fill="none" stroke="saddlebrown" d="M2264.47,-57.81C2284.3,-53.45 2311.89,-48.6 2336.49,-48.6 2336.49,-48.6 2336.49,-48.6 2678.07,-48.6 2698.72,-48.6 2721.43,-51.77 2740.27,-55.28"/>
<polygon fill="saddlebrown" stroke="saddlebrown" points="2739.82,-58.76 2750.3,-57.25 2741.17,-51.89 2739.82,-58.76"/>
<text text-anchor="middle" x="2507.28" y="-52.4" font-family="Times,serif" font-size="14.00" fill="saddlebrown">ε</text>
</g>
<!-- start -->
<g id="node33" class="node">
<title>start</title>
<ellipse fill="black" stroke="black" cx="848.76" cy="-51.6" rx="1.8" ry="1.8"/>
</g>
<!-- start&#45;&gt;q14 -->
<g id="edge1" class="edge">
<title>start&#45;&gt;q14</title>
<path fill="none" stroke="black" d="M850.9,-51.6C857.08,-51.6 887.34,-51.6 912.98,-51.6"/>
<polygon fill="black" stroke="black" points="913.24,-55.1 923.24,-51.6 913.24,-48.1 913.24,-55.1"/>
</g>
</g>
</svg>
