<?xml version="1.0" encoding="UTF-8" standalone="no"?>
<!DOCTYPE svg PUBLIC "-//W3C//DTD SVG 1.1//EN"
 "http://www.w3.org/Graphics/SVG/1.1/DTD/svg11.dtd">
<!-- Generated by graphviz version 2.43.0 (0)
 -->
<!-- Title: %3 Pages: 1 -->
<svg width="754pt" height="202pt"
 viewBox="0.00 0.00 753.97 202.50" xmlns="http://www.w3.org/2000/svg" xmlns:xlink="http://www.w3.org/1999/xlink">
<g id="graph0" class="graph" transform="scale(1 1) rotate(0) translate(4 198.5)">
<title>%3</title>
<polygon fill="white" stroke="transparent" points="-4,4 -4,-198.5 749.97,-198.5 749.97,4 -4,4"/>
<text text-anchor="middle" x="372.98" y="-7.8" font-family="Times,serif" font-size="14.00">Regular Expression: [ab.].+</text>
<!-- q0 -->
<g id="node1" class="node">
<title>q0</title>
<ellipse fill="none" stroke="black" cx="63.35" cy="-108.75" rx="23" ry="23"/>
<text text-anchor="middle" x="63.35" y="-105.05" font-family="Times,serif" font-size="14.00">q0</text>
</g>
<!-- q2 -->
<g id="node3" class="node">
<title>q2</title>
<ellipse fill="none" stroke="black" cx="152.84" cy="-171.75" rx="23" ry="23"/>
<text text-anchor="middle" x="152.84" y="-168.05" font-family="Times,serif" font-size="14.00">q2</text>
</g>
<!-- q0&#45;&gt;q2 -->
<g id="edge3" class="edge">
<title>q0&#45;&gt;q2</title>
<path fill="none" stroke="saddlebrown" d="M82.48,-121.8C95,-130.82 111.84,-142.94 125.79,-152.99"/>
<polygon fill="saddlebrown" stroke="saddlebrown" points="123.88,-155.92 134.04,-158.93 127.97,-150.24 123.88,-155.92"/>
<text text-anchor="middle" x="108.1" y="-145.55" font-family="Times,serif" font-size="14.00" fill="saddlebrown">ε</text>
</g>
<!-- q4 -->
<g id="node5" class="node">
<title>q4</title>
<ellipse fill="none" stroke="black" cx="152.84" cy="-108.75" rx="23" ry="23"/>
<text text-anchor="middle" x="152.84" y="-105.05" font-family="Times,serif" font-size="14.00">q4</text>
</g>
<!-- q0&#45;&gt;q4 -->
<g id="edge4" class="edge">
<title>q0&#45;&gt;q4</title>
<path fill="none" stroke="saddlebrown" d="M86.43,-108.75C96.56,-108.75 108.76,-108.75 119.86,-108.75"/>
<polygon fill="saddlebrown" stroke="saddlebrown" points="120.08,-112.25 130.08,-108.75 120.08,-105.25 120.08,-112.25"/>
<text text-anchor="middle" x="108.1" y="-112.55" font-family="Times,serif" font-size="14.00" fill="saddlebrown">ε</text>
</g>
<!-- q6 -->
<g id="node7" class="node">
<title>q6</title>
<ellipse fill="none" stroke="black" cx="152.84" cy="-45.75" rx="23" ry="23"/>
<text text-anchor="middle" x="152.84" y="-42.05" font-family="Times,serif" font-size="14.00">q6</text>
</g>
<!-- q0&#45;&gt;q6 -->
<g id="edge2" class="edge">
<title>q0&#45;&gt;q6</title>
<path fill="none" stroke="saddlebrown" d="M82.48,-95.69C95,-86.68 111.84,-74.56 125.79,-64.51"/>
<polygon fill="saddlebrown" stroke="saddlebrown" points="127.97,-67.25 134.04,-58.57 123.88,-61.57 127.97,-67.25"/>
<text text-anchor="middle" x="108.1" y="-83.55" font-family="Times,serif" font-size="14.00" fill="saddlebrown">ε</text>
</g>
<!-- q1 -->
<g id="node2" class="node">
<title>q1</title>
<ellipse fill="none" stroke="black" cx="333.84" cy="-108.75" rx="23" ry="23"/>
<text text-anchor="middle" x="333.84" y="-105.05" font-family="Times,serif" font-size="14.00">q1</text>
</g>
<!-- q10 -->
<g id="node11" class="node">
<title>q10</title>
<ellipse fill="none" stroke="black" cx="429.18" cy="-108.75" rx="28.7" ry="28.7"/>
<text text-anchor="middle" x="429.18" y="-105.05" font-family="Times,serif" font-size="14.00">q10</text>
</g>
<!-- q1&#45;&gt;q10 -->
<g id="edge5" class="edge">
<title>q1&#45;&gt;q10</title>
<path fill="none" stroke="saddlebrown" d="M356.96,-108.75C366.95,-108.75 379.03,-108.75 390.39,-108.75"/>
<polygon fill="saddlebrown" stroke="saddlebrown" points="390.54,-112.25 400.54,-108.75 390.54,-105.25 390.54,-112.25"/>
<text text-anchor="middle" x="378.58" y="-112.55" font-family="Times,serif" font-size="14.00" fill="saddlebrown">ε</text>
</g>
<!-- q3 -->
<g id="node4" class="node">
<title>q3</title>
<ellipse fill="none" stroke="black" cx="244.34" cy="-171.75" rx="23" ry="23"/>
<text text-anchor="middle" x="244.34" y="-168.05" font-family="Times,serif" font-size="14.00">q3</text>
</g>
<!-- q2&#45;&gt;q3 -->
<g id="edge6" class="edge">
<title>q2&#45;&gt;q3</title>
<path fill="none" stroke="green" d="M175.97,-171.75C186.59,-171.75 199.52,-171.75 211.2,-171.75"/>
<polygon fill="green" stroke="green" points="211.47,-175.25 221.47,-171.75 211.47,-168.25 211.47,-175.25"/>
<text text-anchor="middle" x="198.59" y="-175.55" font-family="Times,serif" font-size="14.00">a</text>
</g>
<!-- q3&#45;&gt;q1 -->
<g id="edge7" class="edge">
<title>q3&#45;&gt;q1</title>
<path fill="none" stroke="saddlebrown" d="M263.47,-158.69C275.99,-149.68 292.83,-137.56 306.78,-127.51"/>
<polygon fill="saddlebrown" stroke="saddlebrown" points="308.96,-130.25 315.03,-121.57 304.87,-124.57 308.96,-130.25"/>
<text text-anchor="middle" x="289.09" y="-145.55" font-family="Times,serif" font-size="14.00" fill="saddlebrown">ε</text>
</g>
<!-- q5 -->
<g id="node6" class="node">
<title>q5</title>
<ellipse fill="none" stroke="black" cx="244.34" cy="-108.75" rx="23" ry="23"/>
<text text-anchor="middle" x="244.34" y="-105.05" font-family="Times,serif" font-size="14.00">q5</text>
</g>
<!-- q4&#45;&gt;q5 -->
<g id="edge8" class="edge">
<title>q4&#45;&gt;q5</title>
<path fill="none" stroke="green" d="M175.97,-108.75C186.59,-108.75 199.52,-108.75 211.2,-108.75"/>
<polygon fill="green" stroke="green" points="211.47,-112.25 221.47,-108.75 211.47,-105.25 211.47,-112.25"/>
<text text-anchor="middle" x="198.59" y="-112.55" font-family="Times,serif" font-size="14.00">b</text>
</g>
<!-- q5&#45;&gt;q1 -->
<g id="edge9" class="edge">
<title>q5&#45;&gt;q1</title>
<path fill="none" stroke="saddlebrown" d="M267.42,-108.75C277.55,-108.75 289.75,-108.75 300.86,-108.75"/>
<polygon fill="saddlebrown" stroke="saddlebrown" points="301.07,-112.25 311.07,-108.75 301.07,-105.25 301.07,-112.25"/>
<text text-anchor="middle" x="289.09" y="-112.55" font-family="Times,serif" font-size="14.00" fill="saddlebrown">ε</text>
</g>
<!-- q7 -->
<g id="node8" class="node">
<title>q7</title>
<ellipse fill="none" stroke="black" cx="244.34" cy="-45.75" rx="23" ry="23"/>
<text text-anchor="middle" x="244.34" y="-42.05" font-family="Times,serif" font-size="14.00">q7</text>
</g>
<!-- q6&#45;&gt;q7 -->
<g id="edge10" class="edge">
<title>q6&#45;&gt;q7</title>
<path fill="none" stroke="green" d="M175.97,-45.75C186.59,-45.75 199.52,-45.75 211.2,-45.75"/>
<polygon fill="green" stroke="green" points="211.47,-49.25 221.47,-45.75 211.47,-42.25 211.47,-49.25"/>
<text text-anchor="middle" x="198.59" y="-49.55" font-family="Times,serif" font-size="14.00">\.</text>
</g>
<!-- q7&#45;&gt;q1 -->
<g id="edge11" class="edge">
<title>q7&#45;&gt;q1</title>
<path fill="none" stroke="saddlebrown" d="M263.47,-58.8C275.99,-67.82 292.83,-79.94 306.78,-89.99"/>
<polygon fill="saddlebrown" stroke="saddlebrown" points="304.87,-92.92 315.03,-95.93 308.96,-87.24 304.87,-92.92"/>
<text text-anchor="middle" x="289.09" y="-83.55" font-family="Times,serif" font-size="14.00" fill="saddlebrown">ε</text>
</g>
<!-- q8 -->
<g id="node9" class="node">
<title>q8</title>
<ellipse fill="none" stroke="black" cx="524.53" cy="-108.75" rx="23" ry="23"/>
<text text-anchor="middle" x="524.53" y="-105.05" font-family="Times,serif" font-size="14.00">q8</text>
</g>
<!-- q9 -->
<g id="node10" class="node">
<title>q9</title>
<ellipse fill="none" stroke="black" cx="614.02" cy="-108.75" rx="23" ry="23"/>
<text text-anchor="middle" x="614.02" y="-105.05" font-family="Times,serif" font-size="14.00">q9</text>
</g>
<!-- q8&#45;&gt;q9 -->
<g id="edge12" class="edge">
<title>q8&#45;&gt;q9</title>
<path fill="none" stroke="green" d="M547.61,-108.75C557.73,-108.75 569.93,-108.75 581.04,-108.75"/>
<polygon fill="green" stroke="green" points="581.25,-112.25 591.25,-108.75 581.25,-105.25 581.25,-112.25"/>
<text text-anchor="middle" x="569.27" y="-112.55" font-family="Times,serif" font-size="14.00">.</text>
</g>
<!-- q9&#45;&gt;q8 -->
<g id="edge14" class="edge">
<title>q9&#45;&gt;q8</title>
<path fill="none" stroke="saddlebrown" d="M594.86,-95.86C586.12,-91.15 575.37,-87.46 565.27,-89.75 561.55,-90.59 557.77,-91.83 554.09,-93.28"/>
<polygon fill="saddlebrown" stroke="saddlebrown" points="552.41,-90.19 544.71,-97.46 555.27,-96.58 552.41,-90.19"/>
<text text-anchor="middle" x="569.27" y="-93.55" font-family="Times,serif" font-size="14.00" fill="saddlebrown">ε</text>
</g>
<!-- q11 -->
<g id="node12" class="node">
<title>q11</title>
<ellipse fill="none" stroke="black" cx="713.37" cy="-108.75" rx="28.68" ry="28.68"/>
<ellipse fill="none" stroke="black" cx="713.37" cy="-108.75" rx="32.7" ry="32.7"/>
<text text-anchor="middle" x="713.37" y="-105.05" font-family="Times,serif" font-size="14.00">q11</text>
</g>
<!-- q9&#45;&gt;q11 -->
<g id="edge13" class="edge">
<title>q9&#45;&gt;q11</title>
<path fill="none" stroke="saddlebrown" d="M637.11,-108.75C646.99,-108.75 658.98,-108.75 670.45,-108.75"/>
<polygon fill="saddlebrown" stroke="saddlebrown" points="670.77,-112.25 680.77,-108.75 670.77,-105.25 670.77,-112.25"/>
<text text-anchor="middle" x="658.77" y="-112.55" font-family="Times,serif" font-size="14.00" fill="saddlebrown">ε</text>
</g>
<!-- q10&#45;&gt;q8 -->
<g id="edge15" class="edge">
<title>q10&#45;&gt;q8</title>
<path fill="none" stroke="saddlebrown" d="M457.94,-108.75C468.52,-108.75 480.68,-108.75 491.62,-108.75"/>
<polygon fill="saddlebrown" stroke="saddlebrown" points="491.65,-112.25 501.65,-108.75 491.65,-105.25 491.65,-112.25"/>
<text text-anchor="middle" x="479.78" y="-112.55" font-family="Times,serif" font-size="14.00" fill="saddlebrown">ε</text>
</g>
<!-- start -->
<g id="node13" class="node">
<title>start</title>
<ellipse fill="black" stroke="black" cx="1.8" cy="-108.75" rx="1.8" ry="1.8"/>
</g>
<!-- start&#45;&gt;q0 -->
<g id="edge1" class="edge">
<title>start&#45;&gt;q0</title>
<path fill="none" stroke="black" d="M3.83,-108.75C7.23,-108.75 18.48,-108.75 30.22,-108.75"/>
<polygon fill="black" stroke="black" points="30.48,-112.25 40.48,-108.75 30.48,-105.25 30.48,-112.25"/>
</g>
</g>
</svg>
