<?xml version="1.0" encoding="UTF-8" standalone="no"?>
<!DOCTYPE svg PUBLIC "-//W3C//DTD SVG 1.1//EN"
 "http://www.w3.org/Graphics/SVG/1.1/DTD/svg11.dtd">
<!-- Generated by graphviz version 2.43.0 (0)
 -->
<!-- Title: %3 Pages: 1 -->
<svg width="1277pt" height="387pt"
 viewBox="0.00 0.00 1276.74 387.00" xmlns="http://www.w3.org/2000/svg" xmlns:xlink="http://www.w3.org/1999/xlink">
<g id="graph0" class="graph" transform="scale(1 1) rotate(0) translate(4 383)">
<title>%3</title>
<polygon fill="white" stroke="transparent" points="-4,4 -4,-383 1272.74,-383 1272.74,4 -4,4"/>
<text text-anchor="middle" x="634.37" y="-7.8" font-family="Times,serif" font-size="14.00">Regular Expression: (((((a)*b)*)c)*d)*</text>
<!-- q0 -->
<g id="node1" class="node">
<title>q0</title>
<ellipse fill="none" stroke="black" cx="22.75" cy="-169" rx="23" ry="23"/>
<text text-anchor="middle" x="22.75" y="-165.3" font-family="Times,serif" font-size="14.00">q0</text>
</g>
<!-- q1 -->
<g id="node2" class="node">
<title>q1</title>
<ellipse fill="none" stroke="black" cx="113.24" cy="-131" rx="23" ry="23"/>
<text text-anchor="middle" x="113.24" y="-127.3" font-family="Times,serif" font-size="14.00">q1</text>
</g>
<!-- q0&#45;&gt;q1 -->
<g id="edge2" class="edge">
<title>q0&#45;&gt;q1</title>
<path fill="none" stroke="green" d="M37.68,-151.2C44.56,-143.82 53.54,-136.04 63.5,-132 68.69,-129.89 74.47,-128.81 80.17,-128.36"/>
<polygon fill="green" stroke="green" points="80.29,-131.86 90.21,-128.16 80.14,-124.86 80.29,-131.86"/>
<text text-anchor="middle" x="68" y="-135.8" font-family="Times,serif" font-size="14.00">a</text>
</g>
<!-- q1&#45;&gt;q0 -->
<g id="edge3" class="edge">
<title>q1&#45;&gt;q0</title>
<path fill="none" stroke="saddlebrown" d="M91.94,-139.72C80.44,-144.66 65.85,-150.92 53.12,-156.39"/>
<polygon fill="saddlebrown" stroke="saddlebrown" points="51.64,-153.22 43.83,-160.38 54.4,-159.65 51.64,-153.22"/>
<text text-anchor="middle" x="68" y="-155.8" font-family="Times,serif" font-size="14.00" fill="saddlebrown">ε</text>
</g>
<!-- q3 -->
<g id="node4" class="node">
<title>q3</title>
<ellipse fill="none" stroke="black" cx="202.74" cy="-116" rx="23" ry="23"/>
<text text-anchor="middle" x="202.74" y="-112.3" font-family="Times,serif" font-size="14.00">q3</text>
</g>
<!-- q1&#45;&gt;q3 -->
<g id="edge4" class="edge">
<title>q1&#45;&gt;q3</title>
<path fill="none" stroke="saddlebrown" d="M135.87,-127.29C146.18,-125.53 158.71,-123.38 170.06,-121.43"/>
<polygon fill="saddlebrown" stroke="saddlebrown" points="170.79,-124.86 180.06,-119.72 169.61,-117.96 170.79,-124.86"/>
<text text-anchor="middle" x="157.99" y="-127.8" font-family="Times,serif" font-size="14.00" fill="saddlebrown">ε</text>
</g>
<!-- q2 -->
<g id="node3" class="node">
<title>q2</title>
<ellipse fill="none" stroke="black" cx="1245.99" cy="-174" rx="23" ry="23"/>
<text text-anchor="middle" x="1245.99" y="-170.3" font-family="Times,serif" font-size="14.00">q2</text>
</g>
<!-- q2&#45;&gt;q0 -->
<g id="edge5" class="edge">
<title>q2&#45;&gt;q0</title>
<path fill="none" stroke="saddlebrown" d="M1244.7,-196.92C1242.74,-247.45 1230.31,-364 1157.5,-364 112.24,-364 112.24,-364 112.24,-364 41.87,-364 27.18,-257.38 24.31,-201.81"/>
<polygon fill="saddlebrown" stroke="saddlebrown" points="27.8,-201.6 23.89,-191.75 20.81,-201.89 27.8,-201.6"/>
<text text-anchor="middle" x="607.47" y="-367.8" font-family="Times,serif" font-size="14.00" fill="saddlebrown">ε</text>
</g>
<!-- q2&#45;&gt;q3 -->
<g id="edge6" class="edge">
<title>q2&#45;&gt;q3</title>
<path fill="none" stroke="saddlebrown" d="M1242.38,-151.39C1236.11,-109.27 1216.12,-23 1157.5,-23 291.24,-23 291.24,-23 291.24,-23 256.14,-23 230.98,-58.57 216.9,-85.72"/>
<polygon fill="saddlebrown" stroke="saddlebrown" points="213.66,-84.38 212.38,-94.9 219.94,-87.47 213.66,-84.38"/>
<text text-anchor="middle" x="696.97" y="-26.8" font-family="Times,serif" font-size="14.00" fill="saddlebrown">ε</text>
</g>
<!-- q4 -->
<g id="node5" class="node">
<title>q4</title>
<ellipse fill="none" stroke="black" cx="292.24" cy="-116" rx="23" ry="23"/>
<text text-anchor="middle" x="292.24" y="-112.3" font-family="Times,serif" font-size="14.00">q4</text>
</g>
<!-- q3&#45;&gt;q4 -->
<g id="edge7" class="edge">
<title>q3&#45;&gt;q4</title>
<path fill="none" stroke="saddlebrown" d="M225.82,-116C235.95,-116 248.15,-116 259.26,-116"/>
<polygon fill="saddlebrown" stroke="saddlebrown" points="259.47,-119.5 269.47,-116 259.47,-112.5 259.47,-119.5"/>
<text text-anchor="middle" x="247.49" y="-119.8" font-family="Times,serif" font-size="14.00" fill="saddlebrown">ε</text>
</g>
<!-- q5 -->
<g id="node6" class="node">
<title>q5</title>
<ellipse fill="none" stroke="black" cx="383.73" cy="-116" rx="23" ry="23"/>
<text text-anchor="middle" x="383.73" y="-112.3" font-family="Times,serif" font-size="14.00">q5</text>
</g>
<!-- q4&#45;&gt;q5 -->
<g id="edge8" class="edge">
<title>q4&#45;&gt;q5</title>
<path fill="none" stroke="green" d="M315.36,-116C325.98,-116 338.91,-116 350.59,-116"/>
<polygon fill="green" stroke="green" points="350.86,-119.5 360.86,-116 350.86,-112.5 350.86,-119.5"/>
<text text-anchor="middle" x="337.98" y="-119.8" font-family="Times,serif" font-size="14.00">b</text>
</g>
<!-- q5&#45;&gt;q2 -->
<g id="edge9" class="edge">
<title>q5&#45;&gt;q2</title>
<path fill="none" stroke="saddlebrown" d="M399.4,-99.5C415.51,-83.3 442.98,-61 472.23,-61 472.23,-61 472.23,-61 1157.5,-61 1198.87,-61 1223.47,-108.94 1235.59,-142.37"/>
<polygon fill="saddlebrown" stroke="saddlebrown" points="1232.41,-143.88 1238.95,-152.21 1239.03,-141.62 1232.41,-143.88"/>
<text text-anchor="middle" x="798.16" y="-64.8" font-family="Times,serif" font-size="14.00" fill="saddlebrown">ε</text>
</g>
<!-- q7 -->
<g id="node8" class="node">
<title>q7</title>
<ellipse fill="none" stroke="black" cx="473.23" cy="-241" rx="23" ry="23"/>
<text text-anchor="middle" x="473.23" y="-237.3" font-family="Times,serif" font-size="14.00">q7</text>
</g>
<!-- q5&#45;&gt;q7 -->
<g id="edge10" class="edge">
<title>q5&#45;&gt;q7</title>
<path fill="none" stroke="saddlebrown" d="M397.45,-134.18C412.23,-155.28 436.73,-190.29 453.64,-214.44"/>
<polygon fill="saddlebrown" stroke="saddlebrown" points="450.89,-216.62 459.49,-222.8 456.62,-212.6 450.89,-216.62"/>
<text text-anchor="middle" x="428.48" y="-185.8" font-family="Times,serif" font-size="14.00" fill="saddlebrown">ε</text>
</g>
<!-- q6 -->
<g id="node7" class="node">
<title>q6</title>
<ellipse fill="none" stroke="black" cx="1156.5" cy="-260" rx="23" ry="23"/>
<text text-anchor="middle" x="1156.5" y="-256.3" font-family="Times,serif" font-size="14.00">q6</text>
</g>
<!-- q6&#45;&gt;q2 -->
<g id="edge11" class="edge">
<title>q6&#45;&gt;q2</title>
<path fill="none" stroke="saddlebrown" d="M1173.54,-244.23C1186.99,-231.01 1206.36,-211.97 1221.54,-197.05"/>
<polygon fill="saddlebrown" stroke="saddlebrown" points="1224.37,-199.18 1229.04,-189.67 1219.46,-194.19 1224.37,-199.18"/>
<text text-anchor="middle" x="1201.24" y="-222.8" font-family="Times,serif" font-size="14.00" fill="saddlebrown">ε</text>
</g>
<!-- q6&#45;&gt;q7 -->
<g id="edge12" class="edge">
<title>q6&#45;&gt;q7</title>
<path fill="none" stroke="saddlebrown" d="M1141.67,-277.34C1124.4,-296.9 1092.86,-326 1058.15,-326 561.72,-326 561.72,-326 561.72,-326 528.72,-326 503.47,-294.49 488.77,-269.84"/>
<polygon fill="saddlebrown" stroke="saddlebrown" points="491.81,-268.12 483.83,-261.14 485.72,-271.57 491.81,-268.12"/>
<text text-anchor="middle" x="798.16" y="-329.8" font-family="Times,serif" font-size="14.00" fill="saddlebrown">ε</text>
</g>
<!-- q8 -->
<g id="node9" class="node">
<title>q8</title>
<ellipse fill="none" stroke="black" cx="562.72" cy="-241" rx="23" ry="23"/>
<text text-anchor="middle" x="562.72" y="-237.3" font-family="Times,serif" font-size="14.00">q8</text>
</g>
<!-- q7&#45;&gt;q8 -->
<g id="edge13" class="edge">
<title>q7&#45;&gt;q8</title>
<path fill="none" stroke="saddlebrown" d="M496.31,-241C506.43,-241 518.64,-241 529.74,-241"/>
<polygon fill="saddlebrown" stroke="saddlebrown" points="529.96,-244.5 539.95,-241 529.95,-237.5 529.96,-244.5"/>
<text text-anchor="middle" x="517.98" y="-244.8" font-family="Times,serif" font-size="14.00" fill="saddlebrown">ε</text>
</g>
<!-- q9 -->
<g id="node10" class="node">
<title>q9</title>
<ellipse fill="none" stroke="black" cx="652.22" cy="-241" rx="23" ry="23"/>
<text text-anchor="middle" x="652.22" y="-237.3" font-family="Times,serif" font-size="14.00">q9</text>
</g>
<!-- q8&#45;&gt;q9 -->
<g id="edge14" class="edge">
<title>q8&#45;&gt;q9</title>
<path fill="none" stroke="green" d="M585.8,-241C595.93,-241 608.13,-241 619.24,-241"/>
<polygon fill="green" stroke="green" points="619.45,-244.5 629.45,-241 619.45,-237.5 619.45,-244.5"/>
<text text-anchor="middle" x="607.47" y="-244.8" font-family="Times,serif" font-size="14.00">c</text>
</g>
<!-- q9&#45;&gt;q6 -->
<g id="edge16" class="edge">
<title>q9&#45;&gt;q6</title>
<path fill="none" stroke="saddlebrown" d="M670.17,-255.61C687.96,-269.41 717.35,-288 746.57,-288 746.57,-288 746.57,-288 1058.15,-288 1081.66,-288 1107.17,-280.36 1126.17,-273.07"/>
<polygon fill="saddlebrown" stroke="saddlebrown" points="1127.5,-276.3 1135.47,-269.32 1124.88,-269.81 1127.5,-276.3"/>
<text text-anchor="middle" x="900.36" y="-291.8" font-family="Times,serif" font-size="14.00" fill="saddlebrown">ε</text>
</g>
<!-- q11 -->
<g id="node12" class="node">
<title>q11</title>
<ellipse fill="none" stroke="black" cx="747.57" cy="-156" rx="28.7" ry="28.7"/>
<text text-anchor="middle" x="747.57" y="-152.3" font-family="Times,serif" font-size="14.00">q11</text>
</g>
<!-- q9&#45;&gt;q11 -->
<g id="edge15" class="edge">
<title>q9&#45;&gt;q11</title>
<path fill="none" stroke="saddlebrown" d="M669.91,-225.8C683.34,-213.57 702.51,-196.12 718.32,-181.72"/>
<polygon fill="saddlebrown" stroke="saddlebrown" points="720.74,-184.25 725.77,-174.93 716.02,-179.08 720.74,-184.25"/>
<text text-anchor="middle" x="696.97" y="-206.8" font-family="Times,serif" font-size="14.00" fill="saddlebrown">ε</text>
</g>
<!-- q10 -->
<g id="node11" class="node">
<title>q10</title>
<ellipse fill="none" stroke="black" cx="1057.15" cy="-136" rx="28.7" ry="28.7"/>
<text text-anchor="middle" x="1057.15" y="-132.3" font-family="Times,serif" font-size="14.00">q10</text>
</g>
<!-- q10&#45;&gt;q6 -->
<g id="edge18" class="edge">
<title>q10&#45;&gt;q6</title>
<path fill="none" stroke="saddlebrown" d="M1075.55,-158.17C1092.33,-179.54 1117.71,-211.86 1135.35,-234.34"/>
<polygon fill="saddlebrown" stroke="saddlebrown" points="1132.77,-236.72 1141.7,-242.43 1138.28,-232.4 1132.77,-236.72"/>
<text text-anchor="middle" x="1111.75" y="-212.8" font-family="Times,serif" font-size="14.00" fill="saddlebrown">ε</text>
</g>
<!-- q10&#45;&gt;q11 -->
<g id="edge17" class="edge">
<title>q10&#45;&gt;q11</title>
<path fill="none" stroke="saddlebrown" d="M1029.48,-128.04C1015.13,-124.17 997.03,-119.94 980.55,-118 909.75,-109.69 889.34,-100.78 820.16,-118 806.34,-121.44 792.26,-128.1 780.28,-134.89"/>
<polygon fill="saddlebrown" stroke="saddlebrown" points="778.38,-131.95 771.57,-140.07 781.96,-137.97 778.38,-131.95"/>
<text text-anchor="middle" x="900.36" y="-112.8" font-family="Times,serif" font-size="14.00" fill="saddlebrown">ε</text>
</g>
<!-- q12 -->
<g id="node13" class="node">
<title>q12</title>
<ellipse fill="none" stroke="black" cx="848.76" cy="-156" rx="28.7" ry="28.7"/>
<text text-anchor="middle" x="848.76" y="-152.3" font-family="Times,serif" font-size="14.00">q12</text>
</g>
<!-- q11&#45;&gt;q12 -->
<g id="edge19" class="edge">
<title>q11&#45;&gt;q12</title>
<path fill="none" stroke="saddlebrown" d="M776.2,-156C786.54,-156 798.47,-156 809.59,-156"/>
<polygon fill="saddlebrown" stroke="saddlebrown" points="809.93,-159.5 819.93,-156 809.93,-152.5 809.93,-159.5"/>
<text text-anchor="middle" x="798.16" y="-159.8" font-family="Times,serif" font-size="14.00" fill="saddlebrown">ε</text>
</g>
<!-- q13 -->
<g id="node14" class="node">
<title>q13</title>
<ellipse fill="none" stroke="black" cx="951.96" cy="-156" rx="28.7" ry="28.7"/>
<text text-anchor="middle" x="951.96" y="-152.3" font-family="Times,serif" font-size="14.00">q13</text>
</g>
<!-- q12&#45;&gt;q13 -->
<g id="edge20" class="edge">
<title>q12&#45;&gt;q13</title>
<path fill="none" stroke="green" d="M877.41,-156C888.46,-156 901.35,-156 913.23,-156"/>
<polygon fill="green" stroke="green" points="913.34,-159.5 923.34,-156 913.34,-152.5 913.34,-159.5"/>
<text text-anchor="middle" x="900.36" y="-159.8" font-family="Times,serif" font-size="14.00">d</text>
</g>
<!-- q13&#45;&gt;q10 -->
<g id="edge22" class="edge">
<title>q13&#45;&gt;q10</title>
<path fill="none" stroke="saddlebrown" d="M977.36,-142.42C984.03,-139.37 991.4,-136.57 998.55,-135 1004.9,-133.61 1011.73,-132.99 1018.4,-132.84"/>
<polygon fill="saddlebrown" stroke="saddlebrown" points="1018.61,-136.34 1028.64,-132.94 1018.68,-129.34 1018.61,-136.34"/>
<text text-anchor="middle" x="1002.55" y="-138.8" font-family="Times,serif" font-size="14.00" fill="saddlebrown">ε</text>
</g>
<!-- q15 -->
<g id="node16" class="node">
<title>q15</title>
<ellipse fill="none" stroke="black" cx="1057.15" cy="-223" rx="28.68" ry="28.68"/>
<ellipse fill="none" stroke="black" cx="1057.15" cy="-223" rx="32.7" ry="32.7"/>
<text text-anchor="middle" x="1057.15" y="-219.3" font-family="Times,serif" font-size="14.00">q15</text>
</g>
<!-- q13&#45;&gt;q15 -->
<g id="edge21" class="edge">
<title>q13&#45;&gt;q15</title>
<path fill="none" stroke="saddlebrown" d="M980.22,-161.9C989.02,-164.5 998.55,-168.12 1006.55,-173 1014.52,-177.87 1022.15,-184.28 1028.93,-190.88"/>
<polygon fill="saddlebrown" stroke="saddlebrown" points="1026.45,-193.35 1035.94,-198.06 1031.46,-188.46 1026.45,-193.35"/>
<text text-anchor="middle" x="1002.55" y="-176.8" font-family="Times,serif" font-size="14.00" fill="saddlebrown">ε</text>
</g>
<!-- q14 -->
<g id="node15" class="node">
<title>q14</title>
<ellipse fill="none" stroke="black" cx="951.96" cy="-231" rx="28.7" ry="28.7"/>
<text text-anchor="middle" x="951.96" y="-227.3" font-family="Times,serif" font-size="14.00">q14</text>
</g>
<!-- q14&#45;&gt;q10 -->
<g id="edge24" class="edge">
<title>q14&#45;&gt;q10</title>
<path fill="none" stroke="saddlebrown" d="M975.41,-214.07C985.22,-206.39 996.71,-197.03 1006.55,-188 1014.55,-180.66 1022.84,-172.3 1030.3,-164.47"/>
<polygon fill="saddlebrown" stroke="saddlebrown" points="1033.15,-166.55 1037.44,-156.87 1028.04,-161.76 1033.15,-166.55"/>
<text text-anchor="middle" x="1002.55" y="-197.8" font-family="Times,serif" font-size="14.00" fill="saddlebrown">ε</text>
</g>
<!-- q14&#45;&gt;q15 -->
<g id="edge23" class="edge">
<title>q14&#45;&gt;q15</title>
<path fill="none" stroke="saddlebrown" d="M980.61,-228.86C990.94,-228.06 1002.92,-227.13 1014.24,-226.25"/>
<polygon fill="saddlebrown" stroke="saddlebrown" points="1014.7,-229.72 1024.4,-225.46 1014.16,-222.74 1014.7,-229.72"/>
<text text-anchor="middle" x="1002.55" y="-230.8" font-family="Times,serif" font-size="14.00" fill="saddlebrown">ε</text>
</g>
<!-- start -->
<g id="node17" class="node">
<title>start</title>
<ellipse fill="black" stroke="black" cx="848.76" cy="-231" rx="1.8" ry="1.8"/>
</g>
<!-- start&#45;&gt;q14 -->
<g id="edge1" class="edge">
<title>start&#45;&gt;q14</title>
<path fill="none" stroke="black" d="M850.9,-231C857.08,-231 887.34,-231 912.98,-231"/>
<polygon fill="black" stroke="black" points="913.24,-234.5 923.24,-231 913.24,-227.5 913.24,-234.5"/>
</g>
</g>
</svg>
